<?xml version="1.0" standalone="no"?>
<!DOCTYPE svg PUBLIC "-//W3C//DTD SVG 1.1//EN" "http://www.w3.org/Graphics/SVG/1.1/DTD/svg11.dtd" >
<svg xmlns="http://www.w3.org/2000/svg" xmlns:xlink="http://www.w3.org/1999/xlink" version="1.1">
<metadata>
Created by FontForge 20170731 at Sat Sep 13 21:39:31 2014
 By Aleksey,,,
Copyright 2014 Adobe Systems Incorporated. All rights reserved.
</metadata>
<defs>
<font id="McDonalds-Regular" horiz-adv-x="1100" >
  <font-face 
    font-family="McDonalds"
    font-weight="400"
    font-stretch="normal"
    units-per-em="1000"
    panose-1="0 0 5 0 0 0 0 0 0 0"
    ascent="800"
    descent="-200"
    x-height="2688"
    cap-height="2692"
    bbox="0 -0.992248 1550 2729.44"
    underline-thickness="50"
    underline-position="-200"
    unicode-range="U+0020-007A"
  />
<missing-glyph horiz-adv-x="500" 
d="M0 700h500v-700h-500v700zM420 650h-340l170 -255zM450 95v510l-170 -255zM420 50l-170 255l-170 -255h340zM50 95l170 255l-170 255v-510z" />
    <glyph glyph-name=".notdef" horiz-adv-x="500" 
d="M0 700h500v-700h-500v700zM420 650h-340l170 -255zM450 95v510l-170 -255zM420 50l-170 255l-170 -255h340zM50 95l170 255l-170 255v-510z" />
    <glyph glyph-name=".null" horiz-adv-x="0" 
 />
    <glyph glyph-name="nonmarkingreturn" horiz-adv-x="333" 
 />
    <glyph glyph-name="space" unicode=" " horiz-adv-x="600" 
 />
    <glyph glyph-name="A" unicode="A" 
d="M1483 69q1 -6 1 -17v-17q1 -28 -27 -33q-9 -2 -26 -2h-266q-2 0 -17 3q-16 83 -22.5 236.5t-12.5 207.5q-3 1 -7 2t-7 2t-5 1q-88 1 -176 0q-22 0 -29.5 -7t-11.5 -29q-11 -83 -28 -221l-18 -162q-3 -21 -9 -26.5t-26 -5.5q-47 0 -141 0.5t-141 0.5q-1 0 -14 5
q0 4 0.5 11t1 12.5t1.5 10.5q24 167 72 499q3 24 7.5 68t6.5 58q3 22 5 32.5t12 24t28 18.5q0 10 -1 13q-17 48 -4 142q15 96 43 349q5 51 14 153.5t14 153.5q1 10 3 28.5t3 24.5q24 0 32 13.5t11 38.5q7 29 5.5 64t-18.5 62q-1 2 -2 5t-1.5 7.5t-1.5 7.5q28 16 28 67
q0 49 23 84q5 8 15 61v33l15 6q15 5 18.5 14.5t-8.5 17.5q-24 16 -26 58q-1 10 -2.5 29t-2.5 34t-1 29q0 16 12 76q1 4 5 16t3 20t-9 15q12 90 12 92t4 4t10 4t9 4q-23 19 -18 56q3 22 8 66.5t8 66.5q3 23 10 29.5t29 7.5h79t78 1q7 0 12.5 -1.5t11 -5.5t7.5 -6.5t7.5 -10
t6.5 -9.5q13 4 16 8q20 20 51 23.5t56 -0.5q25 -1 28 -29q6 -74 10 -118q-15 8 -31 7.5t-25.5 -4.5t-26.5 -13q5 -12 13 -30q8 2 32.5 8.5t38.5 9.5q1 -6 3 -16l3 -15q8 -71 23.5 -205t22.5 -196q12 -107 34 -321q29 -299 41 -428q5 -49 13.5 -147.5t12.5 -147.5
q12 -126 35.5 -368t34.5 -356q4 -41 11.5 -125.5t11.5 -128.5zM1128 2649l-15 -30q6 -1 14.5 -2.5t14.5 -2.5q-2 7 -3.5 17t-2.5 14q-2 2 -8 4zM866 2403q-1 0 -4 -3t-3 -4q1 -2 5 -6q2 -3 4 -5q2 3 5 7l2 3q-2 4 -9 8zM1056 780q7 0 43 5q-12 149 -14 181q-20 240 -20 259
q-6 253 -36 543q-1 7 -3.5 22t-3.5 23q-2 0 -5 0.5t-4 0.5q-11 -34 -11 -40q-10 -82 -18 -169q-25 -317 -35 -458q-4 -47 -11 -140.5t-10 -140.5q-1 -37 -29 -65q-8 -8 -22 -25t-16 -19q1 -1 2 -3.5t1 -3.5l69 21zM1009 2251q1 -2 3.5 -7.5t4.5 -7.5q1 -1 9 4l-9 15z
M1078 2519q6 5 20.5 9.5t21.5 12t4 22.5q31 9 35 11q-19 7 -47 9q-12 0 -15 -7q-6 -14 -23 -10q-13 3 -18 -6q-10 -14 -33 -10q-22 2 -34 3q6 -7 33 -22q14 -7 40 -25v-6h-33q-6 -25 -16 -71q1 -1 3.5 -2.5t4.5 -2.5q2 1 8.5 4t8.5 4t7.5 4.5t6 5.5t4.5 7t2 9.5t-1 12.5
q9 1 27.5 1.5t28.5 0.5q-17 23 -35 46zM1139 2452q21 8 22.5 11t-10.5 16q-6 -14 -12 -27z" />
    <glyph glyph-name="B" unicode="B" horiz-adv-x="1200" 
d="M1499 674q2 -19 -2 -53q-12 -18 -17.5 -39t-7.5 -52.5t-4 -42.5q0 -3 7 -21l-3 -18q-13 -6 -18 -24q-13 -48 -39 -142v-1q-6 0 -19 0.5t-19 1.5q-11 0 -17 1q-1 3 -4.5 13t-5.5 16q2 3 16 8.5t12 18.5q-13 25 -27 1q-38 -3 -44 -12.5t9 -44.5q17 -19 7 -35q-4 -5 -42 -71
h-18q-18 12 -27 1q-8 -8 5 -14q1 -1 3.5 -5.5t3.5 -7.5l-3 -21q-12 0 -34 -2q-16 -4 -16 -24q-1 -29 -6 -35t-32 -16q-23 -8 -27 -28q-8 -6 -25 -6q-18 15 -27 -6q-3 0 -8.5 -1t-8.5 -2q-8 13 -13 13q-12 0 -14 -18q-37 -6 -141 -4q-8 9 -17 0h-18l-13.5 4.5t-14.5 4.5
t-13 3t-14 1.5t-13 -1t-14.5 -4t-13.5 -8.5q-24 0 -36 1q-6 15 -28 15q-46 -3 -59 45q-3 11 -3 35q-2 18 -11 23q-1 4 -2 12.5t-1 13.5q25 15 0 28q-2 24 -2 36q21 51 -5 92q-7 30 -5 80q23 41 -4 65q0 5 -0.5 13.5t-0.5 12.5q19 10 -1 19q0 5 -1 14t-1.5 16.5t-0.5 14.5
q-1 51 -2.5 154t-2.5 155l6 18q12 11 -2 19q-3 28 0 79.5t2 74.5q1 1 2.5 4t2.5 4q15 10 1 21q-4 0 -5 -1v36q6 3 5.5 49.5t-0.5 49.5q16 13 2 28q0 11 0.5 34t1.5 34q0 16 2 67.5t2 76t-3 64.5t-11 73q-13 59 36 92q-29 17 -61 19q-4 -5 -5 -10t0 -13t1 -10q3 -96 9 -290
q-17 -11 1 -19v-36q-26 -19 0 -37q1 -6 1 -17q-20 -9 -1 -19q0 -24 -1 -36q-16 -12 -21 -20q5 8 21 20q3 -12 -0.5 -41t3.5 -41v-54q-9 -14 0 -28q-2 -116 -4 -173q-4 -10 0 -19q0 -42 0.5 -125.5t0.5 -124.5q1 -79 2 -238t2 -239q0 -55 8 -72q-2 -5 -1.5 -18.5t-4.5 -21
t-20 -7.5q-31 -1 -45.5 11t-18.5 40q0 15 -1 23q3 8 0 20q0 11 2 35q4 9 0 19q2 18 2 27q13 25 5 73q0 11 1 17q6 18 0 38v53q7 46 -4 73q-2 18 -2 28q4 29 -2 99q-12 138 3 249q14 97 10 312q-3 183 0 213q-1 5 -1 17q24 15 -1 28q0 5 -0.5 14t-0.5 13q7 16 7 21
q1 53 1 161q0 18 -12 27q-3 16 1 28q24 61 2 117q0 3 -0.5 9t-0.5 9q7 8 9 20t1 22t1 22q19 1 30 -7q-11 8 -30 7v36q4 1 17 3t19 3.5t12.5 7.5t7.5 16q2 21 -11.5 38t-36.5 23q-1 13 0.5 37.5t0.5 44t-7 36.5v37q14 28 1 54v63q0 26 19 44q14 6 7 20q5 33 -1 40
q-16 20 -19.5 43.5t-0.5 57t2 49.5q28 -17 45 -61l3 -18q1 -3 3 -10l3 -10.5t3.5 -9.5t5 -9.5t7 -7t9.5 -5.5q2 -2 4.5 -1t4 1.5t3 3t2.5 4t2 4.5t2 4q2 4 9.5 16.5t9.5 19t0.5 17t-10.5 20.5q-23 24 -18 63q0 1 3 32q1 38 -9.5 48t-48.5 8q-17 0 -19 7q-9 37 4 71
q8 17 43 17q42 -1 123.5 -1h132t120.5 -3.5t129 -9.5q259 -28 344 -288q55 -164 38 -382q-27 -14 0 -28q0 -6 -1 -17.5t-2 -17.5q-18 -10 0 -20q1 -20 0.5 -27t-3.5 -26.5t-4 -26.5q-40 -27 -20 -78q-4 -33 -15 -49q-16 -7 -10 -25l-6 -12q-28 -95 -134 -185
q-29 -25 -86 -52q195 -91 254 -310q-6 -31 14 -54l3 -18q-9 -16 6 -28q1 -1 3 -4t3 -4q0 -19 5 -65t3 -71q0 -1 -3 -7t-3 -10q-1 -23 -1.5 -69.5t-0.5 -69.5q0 -18 14 -26v-18q-18 -10 1 -19zM780 2097q-3 15 -30 20q-5 1 -8.5 0t-5 -4.5t-2 -5.5t-0.5 -7.5v-7.5t0.5 -5.5
t0.5 -5.5t1 -5.5t2 -5t3.5 -3.5t6.5 -3q5 -1 19.5 13.5t12.5 19.5zM716 1745q0 -10 10 -10q11 0 11 10q-3 11 -13 9q-8 -2 -8 -9zM703 2356q-2 0 -12 3t-17 2t-14 -7q14 -29 38 -26q13 2 16 13q3 13 -11 15zM651 2152q-6 -19 14 -22q62 -8 94 40q-2 7 -6 11t-12.5 9.5
t-10.5 6.5q-28 20 -40.5 16.5t-28.5 -36.5q-5 -10 -10 -25zM874 1925q0 -42 1 -126.5t2 -126.5q1 -56 9.5 -68.5t60.5 -31.5h25q2 -20 10 -26q25 24 52 16q12 -3 18 3.5t3 19.5q-1 4 -8 20l1 1q29 9 34.5 20.5t-6.5 39.5q1 7 5 26q21 10 6 28q1 5 2 13t1 13q35 15 37 33
q2 22 -29 32q0 6 1 17.5t2 17.5q23 20 0 39v24q7 13 10.5 29.5t3.5 26t-2 32.5t-2 28q-1 3 -5 7.5t-5 6.5l-6 126q-3 74 -26 137q-19 50 -48 68t-81 18q-29 0 -38 -9t-11 -38q-6 -95 -20 -265q-19 -15 -1 -30q0 -6 0.5 -17.5t0.5 -16.5q-21 -15 0 -30q0 -11 1 -16
q-13 -10 -16 -25q3 15 16 25q2 -28 2 -41zM1102 542q18 235 2 426q-11 132 -44 207q-37 85 -126 91q-42 2 -49 -5t-7 -51v-408h3v-227q0 -185 2 -213q2 -21 7.5 -26t24.5 -4q42 3 86 17q39 13 59 51q36 66 42 142zM1271 248q16 2 16 16q-3 12 -13 9q-13 -4 -14 -15
q0 -10 11 -10zM1344 469q5 -47 19 -60.5t43 -1.5q-14 36 -24.5 46t-37.5 16z" />
    <glyph glyph-name="C" unicode="C" 
d="M618 1944q-8 0 -13.5 -2.5t-9 -4.5t-6 -7.5t-3.5 -7.5t-2.5 -9t-1.5 -8l-1 -7q-1 -6 -1.5 -7t-2 -6t-3.5 -7l-5.5 -5.5t-8 -5.5t-10.5 -3q-5 28 -5 30q0 13 0.5 37t0 43t-3.5 35q-13 73 -1 178q20 156 86 286q107 212 357 221q213 8 333 -118q86 -92 121 -224
q7 -26 15 -82q7 -49 21.5 -147.5t21.5 -148.5q1 -11 4 -70q0 -34 -37 -40q-12 -1 -25 -3t-28.5 -5t-24.5 -4q-143 -20 -167 -23q-43 -4 -59.5 9t-19.5 54q-2 23 -8.5 121.5t-11.5 151.5q-7 52 -27 117q-21 64 -96 53q-49 -6 -59 -49q-26 -96 -30 -146q-15 -161 -16 -299
q0 -47 -1 -203t-1 -229t2 -194.5t7 -220.5q1 -20 0 -42.5t-4 -51t-4 -42.5q-1 -11 -3.5 -44t-3.5 -51q-1 -34 -1 -102v-102q0 -47 26 -77q13 -13 20 -36q2 -8 5.5 -17t6.5 -15.5t9 -16t9 -13.5t11 -14.5t10 -13t12 -14.5t11 -13q2 -3 5.5 -5t9 -4.5t9.5 -4.5q27 48 69 55
q7 1 14 12t8 20q1 20 18 159t13 213q-1 28 4 66q3 27 11 33t37 2q63 -7 189 -25q35 -4 69 -12q27 -5 34 -13t6 -35q-5 -76 -17 -228q-2 -27 -8 -77.5t-7 -58.5q-8 -83 -49 -176q-4 -8 -17 -25q-19 17 -68 56q-6 -14 -18 -44t-19 -46q29 -26 16 -73q-8 -27 -41 -32
q-4 -1 -11 1.5t-8 4.5q-2 15 -13 26t-21 15.5t-32 11.5q10 8 27 20t25 18q-9 36 -46 31q-54 -6 -118 -17q-16 -3 -24 -12t-25 -39q38 -28 78 -57q6 -4 25 -4q3 0 8.5 2t8.5 2q19 1 35 -8t17 -22q4 -32 -39 -42q-163 -38 -306 9q-101 33 -178 137q-15 20 -26.5 40t-23 49.5
t-15.5 40.5t-17 51.5t-14 44.5q-6 19 -11 37.5t-9 41t-6.5 37t-5.5 41.5t-4 37t-3.5 42t-3.5 38q-27 305 -27 577q0 19 -3 53.5t-3 49.5q-2 43 2.5 88.5t14 105t12.5 87.5q2 16 11 44.5t11 38.5q4 25 -3 35q-19 28 5 57q34 39 40 44q41 34 24 101zM733 1867q-52 11 -59 -13
q-6 -26 32 -41zM917 56q6 4 15 9t13 8t7 7q9 9 3 22q-7 13 -20 11t-17 -15q-1 -3 -1 -42zM1229 275q1 2 3 7t3 7t2.5 6.5t2 6.5t0.5 5.5t-0.5 6t-2 6t-3.5 6.5q-23 -21 -5 -51zM612 2071q-22 -17 -22 -22t22 -15v37zM1112 264q-5 -7 -12 -17t-10 -14q20 -1 24.5 6.5
t-2.5 24.5zM1375 311q-3 0 -9 1t-8.5 1.5t-6.5 -2t-6 -7.5q-2 -7 4 -10q18 -5 26 17zM652 1473q-6 -10 -6 -11q0 -3 7 -8q6 8 7 11zM802 914q-2 2 -4 5t-4 4l-1 1q-6 -1 -12 -7q-1 -1 2 -4.5t4 -3.5q3 0 15 5z" />
    <glyph glyph-name="D" unicode="D" 
d="M1499 1001q7 -392 -65 -655q-42 -154 -149.5 -242.5t-265.5 -95.5q-84 -4 -241 -5.5t-185 -2.5q-66 -2 -66 61q0 29 2.5 95.5t1.5 102.5q-1 67 -6.5 360t-6.5 451q-2 69 -1.5 310.5t0.5 310.5q0 21 -6.5 59.5t-7.5 52.5q-6 86 10.5 118t95.5 82q-24 13 -41 32t-26 35
t-15.5 43t-8 39.5t-4.5 42.5q-14 128 -14 386q0 66 23.5 88t91.5 24q121 4 256 -2q56 -2 73 -26q27 -37 -25 -82l-14 -10.5l-18 -13.5q32 -17 180 -95q5 9 19.5 33t24.5 40q-52 21 -53 21q-47 9 -40 63q6 46 62 43q177 -12 266 -156q103 -165 117 -424q30 -632 36 -1083z
M607 2063q54 87 4 168q-2 -14 -16 -49.5t-13 -63t25 -55.5zM757 1427l21 12q-2 2 -3.5 4t-3 3.5l-3 3l-2.5 2.5h-1q-4 -2 -18 -14q2 -2 4 -5t3.5 -4.5t2.5 -1.5zM1109 776q3 545 -4 934q-5 172 -38 451q-6 55 -54 138q-16 27 -42 38.5t-55 -1.5q-7 -4 -12 -14t-7.5 -19
t-6 -25t-5.5 -23v-37v-736h1q0 -636 1 -763q0 -95 12 -283v-13t0.5 -15t1.5 -13.5t3.5 -13t6 -10t9.5 -8.5t14 -4q24 -2 51.5 6.5t40.5 23.5q48 58 60 125q23 141 23 262z" />
    <glyph glyph-name="E" unicode="E" 
d="M935 2338v-13t1 -9q16 -35 23 -77t6 -78t-1 -78q-6 -332 -8 -498q0 -7 10 -82q117 0 174 1q17 0 70.5 3t83.5 2q43 0 58 -13t14 -51q0 -8 -8 -64q0 -3 -2.5 -15t-2.5 -15t2 -14q12 -31 -30 -50q3 -3 10 -8.5t11.5 -10t5.5 -8.5q19 -58 7.5 -76.5t-79.5 -18.5
q-87 1 -261 1q-11 0 -33.5 -1.5t-30.5 -1.5q0 -5 -3 -27.5t-3 -33.5q-1 -87 -1 -261.5t-1 -261.5q0 -121 1 -181q1 -41 11.5 -49.5t60.5 -8.5q139 0 208 1q54 1 78 -35q5 -7 47 -57q30 3 45 37t27 41q81 -135 59 -271q-3 -22 -23 -37q-12 -10 -26.5 -9t-24.5 15q-6 8 -18 26
q-21 27 -37.5 28t-36.5 -25q-38 -53 -124 -53q-101 0 -303 -0.5t-303 -0.5q-11 0 -33.5 1.5t-30.5 1.5q-5 63 -5 67q3 582 3 583q0 82 -5 244.5t-6 243.5q0 142 14 245q4 12 2.5 41t-2.5 40t-5 39.5t-5 39.5l-9 75q-10 78 65 99l5 2.5t7.5 4.5t9.5 6q-4 10 -11 30t-14 36
t-15 29q-55 88 -43 215q22 209 -10 511q-2 26 20 49t53 24q97 5 236 5h87.5h101.5h84q10 12 25.5 30.5t22.5 26.5q13 -8 13.5 -16.5t-4.5 -17.5t-4 -14q35 -5 45 0t36 40q13 -22 25 -43q5 0 35.5 -1.5t39 -1.5t34.5 0.5t39 3t34.5 6.5t39 12t34.5 18q4 -20 -16.5 -34
t-21.5 -16q12 -66 11.5 -101t-6 -101t-4.5 -101q0 -43 -69 -38q-23 2 -63.5 5.5t-73.5 6t-63 3.5q-60 2 -83.5 3.5t-68.5 10t-79 23.5q-3 1 -7 1.5t-8 0t-10 0.5zM1450 174q-6 -2 -20.5 -6t-20.5 -6.5t-14.5 -8t-11.5 -13.5t-2 -20q9 -2 26.5 -5.5l27.5 -5.5q1 6 6.5 28.5
t8.5 36.5zM1273 119l11 11q-16 4 -24 5q-2 0 -7 -2t-7 -2q2 -2 6.5 -8.5t7.5 -9.5z" />
    <glyph glyph-name="F" unicode="F" 
d="M588 1023q-12 -17 -19 -60t-28 -65q-2 6 -10.5 25t-11.5 28q-8 24 -12 54t-4.5 49.5t0.5 57t1 51.5q1 66 5.5 189.5t5.5 179.5q1 67 1 403q0 94 -3 112q-7 50 -2 80q2 20 2 27.5t-3.5 29t-4.5 29.5q0 3 -2 8.5t-2.5 8.5t0.5 7q21 36 22.5 84.5t-5.5 85.5q-7 88 19 209
q9 38 30.5 54.5t67.5 21.5q3 0 9 0.5t9 0.5q62 -9 205.5 -3t205.5 1q1 0 5 -2.5t8 -4.5q-16 -22 -23 -34q10 -2 11 -2l93 36q26 10 40 10q146 2 219 -2q46 -1 64.5 -17.5t18.5 -56.5q-1 -88 -10 -210q-2 -28 -20 -41.5t-58 -15.5q-29 -1 -117.5 -4.5t-136.5 -6.5
q-45 -2 -173 -10q-2 -15 -7 -45t-8 -51t-3 -41q-1 -151 3 -451q1 -26 4.5 -74.5t4.5 -68.5q1 -45 15 -55.5t69 -8.5q136 6 200 8q50 2 85 -2q37 -3 48.5 -14t10.5 -41q0 -18 -2 -71.5t-2 -82.5q-2 -43 5 -76q8 -42 -4 -54.5t-63 -13.5q-37 -2 -219 -4q-9 0 -38.5 1t-46.5 0
q-37 -2 -46.5 -10t-8.5 -39q0 -21 5 -69t4 -74q0 -57 -3.5 -160.5t-4.5 -136.5v-147q-9 -4 -35 -15t-45 -19q43 -14 81 -28q3 -109 2 -134q-3 -112 -9 -220q-3 -41 -14 -86q-7 -26 -19.5 -35.5t-42.5 -10.5q-74 -3 -139 1q-11 1 -23 6.5t-16 12.5t-8 12.5t-11 9.5t-11.5 6
t-13.5 3.5t-13.5 2t-16 1.5t-14.5 1q-1 -2 -9 -13.5t-14 -16.5q-29 -20 -44 -20q-28 1 -30 39q-7 77 -6 102q0 45 2 135.5t3 135.5q1 34 -2 205v65q2 1 6.5 2t6.5 1q1 -2 7 -8t8 -9q23 -59 52 -142q7 -20 7 -24q-2 -139 -6 -277q0 -4 -1.5 -16t-0.5 -19q2 -30 34 -29
q9 1 188 15q1 0 2.5 0.5t2.5 1.5t3 2.5t4 2.5q-3 27 -34 27q-7 1 -19 -0.5t-17 -1.5q-25 1 -35 8.5t-9 28.5q0 9 8 54l-10 8q-41 3 -58 22.5t-20 56.5q-4 43 -41 387q-11 98 -25 243zM798 525q-56 14 -83 -9q-2 -4 -1.5 -6t3 -11t3.5 -14q46 23 78 40zM770 122q40 -22 54 0
q1 2 -0.5 5t-5.5 8t-5 7q-6 -3 -43 -20z" />
    <glyph glyph-name="G" unicode="G" horiz-adv-x="1101" 
d="M1134 2155q2 -2 5 -7.5t6 -8.5t6 -4q27 -5 35 2q18 16 6 51t-37 40q-40 10 -44.5 19.5t15.5 41.5q2 3 7.5 11.5t8 13t5 11.5t2 14t-3.5 14q-1 2 0.5 4.5t5 7t4.5 6.5q11 -3 19.5 -7.5t15 -12.5t10 -13.5t9 -16.5l7.5 -15q31 11 36.5 34.5t-18.5 46.5q-17 15 -37 30
t-51 36.5t-47 32.5q10 -40 13 -49q12 -38 -4 -62t-57 -30q-7 -1 -19 -1.5t-16 -0.5q-42 -2 -61 -14t-31 -49q-45 -145 -53 -209q-3 -23 -4 -45q-2 -59 -9.5 -209t-10.5 -232q-1 -28 3 -81t4 -73q2 -93 -1 -138q-4 -31 -1.5 -84t6 -83.5t9.5 -83.5t9 -83q4 -43 10 -120.5
t11.5 -141.5t11.5 -120q11 -90 41 -175q12 -34 44 -50t71 -11q43 6 58 21t16 55q1 14 3.5 68t3 74t1.5 65.5t0 73.5t-3 66t-6 72q-6 48 -2 181q0 8 13 57q13 56 70 53q-7 7 -14 11q-53 30 -72.5 25t-52.5 -56q-17 -24 -25 -27q-37 -14 -59 -8q-6 1 -11.5 15t-5.5 25
q-3 120 -3 239q0 28 9 36.5t38 9.5q35 1 207 -2q29 0 61.5 -1t72 -2.5t61.5 -2.5q41 -2 53 -13.5t13 -47.5v-42v-49v-42q1 -52 -45 -80q-27 -17 -28 -28.5t22 -32.5q11 -11 26 -21q34 -24 26 -67q-8 -40 -10 -46q-17 -61 -3 -174q8 -54 2 -148q-3 -41 9 -66q10 -20 10 -47
q0 -58 -2 -163.5t-2 -139.5q0 -31 -33 -57q-95 -84 -291 -115q-132 -21 -269 1q-86 15 -149 65q-152 124 -187 328q-10 65 -24.5 184.5t-18.5 153.5q-10 72 45 89q44 -34 80 -64q3 5 9 14t9 15t3 11q2 40 -9 49q-11 8 -18 28t-18.5 33.5t-38.5 11.5q-5 -4 -12.5 -13
t-12.5 -14.5t-16 -9.5t-22 3q-11 5 -15.5 13.5t-5 15.5t0.5 20.5t1 17.5q0 51 -1.5 173t-2 189.5t0 167.5t3.5 183q10 369 44 551q26 142 54 206q81 189 230 232q104 28 196.5 30t177.5 -38.5t145 -121.5q79 -107 95 -281q5 -48 8 -101t6 -121.5t5 -101.5q1 -38 -7 -49
t-47 -25q-28 -10 -64.5 -16.5t-52.5 -8t-70 -4.5t-57 -3q-34 -2 -39 37q-16 145 6 295zM622 536q12 18 18 24q16 19 21 18q15 -2 23.5 3.5t7.5 17.5q-2 28 -18 40q-7 5 -21.5 4.5t-19.5 -5.5q-18 -19 -29 -55q-12 -33 18 -47zM776 664q11 20 14 37t-6 32.5t-15 23.5
t-24.5 24.5t-23.5 21.5q1 -9 2.5 -18.5t3.5 -17t6.5 -18.5t6.5 -16t8.5 -17.5t8.5 -16.5t10 -18t9 -17zM703 1030q6 1 18 1v55q0 3 -3.5 6t-10 6.5t-8.5 5.5q-1 -2 -4.5 -6.5t-5.5 -7.5t-2 -6q2 -12 16 -54zM974 2436q35 -17 47 -10.5t19 45.5q-28 -15 -66 -35zM579 1060
q20 -35 50 -19q4 1 4.5 9.5t-2.5 12.5q-8 10 -17.5 11.5t-16 -2t-18.5 -12.5zM859 2484q39 -7 46 18q1 3 -5.5 9.5t-10.5 6.5q-17 2 -25.5 -6t-4.5 -28zM658 690q2 1 5.5 3.5t5.5 4.5q-4 5 -30 35q-3 -23 -0.5 -28.5t19.5 -14.5zM587 993q1 2 3.5 6t3.5 6q-2 1 -6.5 3t-8 3
t-5.5 0q-7 -2 -18 -15q-1 -1 2.5 -6t5.5 -5q5 1 23 8zM608 1125q-15 9 -16 9q-5 -3 -13 -13l11 -7q1 0 18 11z" />
    <glyph glyph-name="H" unicode="H" 
d="M1157 1158q-25 69 -101 49q-24 -6 -119 -11q-33 -2 -42 -11.5t-9 -44.5v-222q0 -6 -3 -21q-15 -1 -60.5 -5.5t-70.5 -6.5q-18 -2 -34 4q-66 25 -118 -29q8 -2 26.5 -6.5t28.5 -7.5q1 -4 1 -11q-3 -2 -14 -8.5t-15 -8.5t-14 -8t-15.5 -8.5t-14.5 -7t-16 -7t-16 -6t-17 -6
t-17 -4.5q-9 19 -11 39t-0.5 47.5t1.5 37.5q-1 74 37 157q12 30 0 59q-48 120 -42 335q1 20 -0.5 59.5t-1.5 59.5q1 48 3.5 136t4 160t1.5 136q0 203 -6 609q-1 42 16 61t57 19h241q37 -1 47.5 -12t11.5 -49q2 -107 6 -320t5 -319q0 -55 -0.5 -116.5t-1.5 -136.5t-1 -117
v-74h220q0 3 2 18.5t2 23.5q-1 18 -6.5 102t-6.5 130q-1 26 1.5 75t2.5 68q1 178 1 532q0 93 2 139q2 37 13.5 50t46.5 13q123 3 275 1q32 -1 44 -14.5t13 -47.5q1 -96 1 -288q0 -46 0.5 -139t0.5 -140q0 -38 -11 -51q-6 -6 -14 -11q-25 -14 -10 -51q11 -19 13 -22
q26 -38 26 -60.5t-27 -62.5q23 -43 23 -101.5t-9 -104.5q-1 -4 -3.5 -11t-3.5 -13t0 -10q10 -42 11.5 -90.5t-1 -105.5t-0.5 -91q4 -88 5 -184.5t0.5 -223t-0.5 -185.5q0 -207 -3 -412q-1 -47 -10 -269q-17 0 -53.5 -3t-65 -2t-56.5 9q19 30 48 77q-19 -8 -48 -20t-39 -16
l-108 -42q-31 -11 -44.5 -1t-13.5 43q0 39 1 82.5t2.5 97.5t2.5 83q4 196 5 294q0 81 -1 244.5t-1 245.5q0 33 6 41t40 19zM775 1052q-5 3 -15 7q-8 -21 -9 -26q0 -1 5 -3.5t6 -2.5q2 4 13 25zM507 736h57q35 62 108 52q21 -3 32 -21t9 -45q28 8 30 8q0 12 -1 17
q-2 5 -7 14.5t-8 17t-3 14.5q-1 31 23 46.5t55 5.5q30 -9 64 -30q16 -10 16 -28q1 -17 1 -107q-7 -1 -21.5 -4t-20 -3t-14.5 3q-12 9 -26 11t-21 1t-25.5 -8t-21.5 -8q14 -1 46 -4.5t49 -5.5q42 -4 49 -12.5t8 -53.5q0 -130 -1 -195v-315q-1 -51 -16 -66t-64 -15
q-150 0 -225 1q-41 1 -53 13t-13 53q-1 46 -1 137t-1 137q0 29 -3 98.5t-3 107.5q-2 34 13 52q20 25 6 67q-3 11 -9 33.5t-8 31.5zM658 429q2 3 7.5 7.5t7.5 7.5t2 6q0 4 -4.5 10t-8.5 6t-9.5 -4t-7.5 -9q0 -3 1.5 -6t5.5 -8.5t6 -9.5z" />
    <glyph glyph-name="I" unicode="I" horiz-adv-x="607" 
d="M899 11q-6 0 -30.5 -3t-37.5 -3q-72 -2 -218 -2q-21 0 -25 1q-20 4 -25.5 13.5t2.5 29.5l3 6t3.5 6.5t2.5 6.5t1 7t-0.5 6.5t-2.5 7.5t-6 8q-24 -14 -37 -21q-1 2 -4 4.5t-4.5 4t-1.5 3.5q-5 22 -5 40q-2 202 -4 608q0 6 0.5 13t1.5 15t1 13q5 3 15 6.5t16.5 7.5t9.5 9
q5 6 7 14.5t4 24t4 24.5q-7 -5 -17.5 -12l-18 -12t-15.5 -10q-8 26 -8 31q-2 207 1 373q1 15 22 67q1 2 5 12.5t5 14t1.5 11.5t-2.5 14.5t-10 12.5q-1 4 -0.5 6.5t3.5 11t4 12.5q-21 11 -23 27.5t4.5 39.5t5.5 35q-3 27 10.5 40.5t34.5 23.5t28 22l-1 1l-2 2
q-55 -4 -72.5 10.5t-20.5 68.5q-5 108 -2 245q1 41 6.5 135.5t6.5 144.5q1 58 -4 261q-1 27 -2.5 57.5t-3.5 68t-3 57.5q-1 36 9 47.5t45 12.5q1 0 136 -3q17 0 53 0.5t53 0.5h40q42 -4 55 -19.5t13 -58.5q0 -50 1.5 -178.5t0.5 -198.5q0 -57 -3 -173t-4 -174
q-2 -644 -1 -966q0 -86 4 -249t4 -237q1 -131 -3 -393q0 -7 -5 -32zM683 23q5 2 16.5 6t15.5 5.5t13.5 5t14 6t11.5 6.5t11.5 7.5t9.5 8.5t9 11q13 19 15.5 30.5t-9.5 33.5q-8 10 -8 37q-1 8 0.5 23.5t1.5 21.5q2 27 -22 28q-18 0 -25 -25q-1 -2 -34 -111q-5 5 -13 19.5
t-17.5 20t-27.5 0.5q-1 -10 -4.5 -35t-5.5 -38q6 -4 16.5 -7t17 -5t13.5 -8t6 -15t-5 -26zM614 248q-32 7 -73 16q12 -21 50 -89l24 -4q2 5 5 15.5t5.5 16.5t6.5 8q22 12 23.5 34t-4.5 38q-8 41 -59 52q19 -75 22 -87zM665 1667q-30 14 -57 11.5t-56 -24.5q6 -2 14 -5
t12.5 -4.5t8.5 -0.5q7 2 78 23z" />
    <glyph glyph-name="J" unicode="J" 
d="M854 393q8 0 24 1t27 0t19 -5q42 -24 72 -27t48 13.5t28 39t18 57.5q19 84 24 169t3 222t-2 170q7 575 -6 1495q0 42 4 67.5t18 47t44.5 28.5t79.5 0q32 -5 63.5 -1.5t61 0.5t53 -12t38.5 -40t17 -83q11 -154 6.5 -732.5t-2.5 -731.5q0 -7 0.5 -25t0.5 -27t-2.5 -24.5
t-7 -25t-14 -21t-23.5 -20.5q-2 -1 -9.5 -4t-9 -5t-4.5 -9.5t4 -16.5q184 -367 -99 -762q-64 -89 -186 -118.5t-248.5 5.5t-203.5 122q-58 65 -96 138.5t-57 159t-26 153t-11 166.5q-1 31 15 45.5t51 24.5q58 17 94.5 26.5t72 14.5t55.5 3.5t38.5 -13t26.5 -27.5t15 -47
t9 -65t3 -88q0 -14 6 -36t10.5 -39.5t5 -37t-12 -37t-38.5 -31.5q-15 -4 -14.5 -16t17.5 -41z" />
    <glyph glyph-name="K" unicode="K" 
d="M671 1723q2 10 5 29.5t4 27.5q7 189 8 230q0 28 -1 112t1 112q0 17 3.5 36t9 42.5t7.5 36.5q1 3 4.5 16t3.5 16.5t-2 13.5q-12 21 -14 40t8.5 41t16 31t24.5 35q2 3 16 25q-5 10 -17.5 20t-23 17t-17 20t-2.5 31q124 3 135 2q19 -1 29 -15.5t9 -35.5q0 -2 -2.5 -33
t-3.5 -47q-18 -401 -19 -478q-1 -60 3 -174t4 -130q0 -15 -1.5 -63t-0.5 -74q0 -2 0.5 -10t0.5 -10.5t1 -10t2 -10.5t2.5 -9t3.5 -9.5t5 -8t6.5 -7t8.5 -5.5t11 -4q52 -12 87 53q27 49 34 93q7 48 17.5 145t17.5 146q3 20 15 55.5t15 50.5q15 60 39 180q1 8 -8 30
q-17 40 25 62q25 12 37 32q20 31 -13 54q-32 22 -36.5 42t17.5 48q38 49 53 119q11 59 72 60h178q32 -1 42.5 -13.5t7.5 -42.5q-5 -51 -21 -161q-4 -29 -13.5 -81.5t-15.5 -95.5t-7 -81q-3 -93 -32.5 -269t-33.5 -262q0 -18 -3.5 -36.5t-10 -44t-8.5 -35.5
q-31 -133 -132 -185q-3 -2 -24 -25q18 -28 21 -30q75 -50 108 -122.5t43 -169.5q5 -52 37 -428q1 -6 1.5 -20.5t2.5 -22.5q42 -142 30 -258q-3 -18 9 -43q9 -17 14.5 -35t8.5 -40.5t4.5 -35t2.5 -41.5t2 -37q2 -34 -13.5 -49.5t-50.5 -17.5q-143 -6 -211 -7q-35 -1 -48 11.5
t-17 47.5q-38 343 -55 487q-23 208 -26 241q-11 152 -67 316q-17 50 -59 72q-49 27 -66 -24q-5 -14 -5 -36q0 -44 1 -131.5t1 -130.5q0 -253 -1 -379q0 -166 -1 -187q-5 -141 -14 -242q-2 -29 -15 -38.5t-47 -9.5q-33 -1 -99 -1h-99q-54 -2 -63 41q-15 60 -15 73q0 30 3 90
t4 90q1 16 1 35t-0.5 42t-0.5 35v31q11 42 13 87.5t-1.5 108.5t-3.5 88q-2 220 -2 330l1 286q0 286 -1 286q-1 24 -8.5 68.5t-8.5 54.5q-9 53 -8 74q1 37 5 152t5 177q2 66 4 199t3 200q2 58 6 87q4 30 17.5 41.5t41.5 10.5q30 -2 49.5 -18t20.5 -42q0 -19 -2.5 -55
t-2.5 -51q-2 -53 -5.5 -158.5t-5.5 -157.5q-1 -24 -4 -68.5t-4.5 -80.5t-0.5 -68q1 -44 23 -236q0 -3 2.5 -6t8 -9.5t10.5 -13.5z" />
    <glyph glyph-name="L" unicode="L" horiz-adv-x="1215" 
d="M556 1541q-20 33 -22 41q-3 10 -5 47q-2 60 -5.5 179.5t-4.5 179.5q0 14 2 86q9 241 -18 504q-1 9 -1.5 19.5t-1 23.5t-0.5 20q-1 31 11 42.5t44 9.5q49 -3 145 -9q78 -4 115 -3q58 1 76 -54q15 -43 55 -69q34 -22 28 -63q-2 -8 -2.5 -23.5t-1.5 -23.5q-6 -34 -42 -23
q-5 2 -14 6.5t-16.5 7.5t-14.5 4q-15 2 -27 -14q-2 -3 1.5 -12t8.5 -12q26 -12 54 -18q29 -7 35.5 -15.5t8.5 -36.5q2 -58 6.5 -174.5t6.5 -175.5q1 -32 3.5 -132t4.5 -155q1 -33 5.5 -99.5t5.5 -100.5q2 -54 3 -152.5t2 -130.5q0 -15 2 -51t1 -56q0 -31 -3 -93.5t-4 -94.5
q0 -18 2 -54.5t2 -55.5v-236q0 -32 -0.5 -96t-0.5 -96q0 -40 14 -52t55 -10q55 3 164 5q126 2 189 2q33 -1 46.5 -10t20.5 -39q5 -22 8.5 -46t7 -59t4.5 -47q3 -21 5 -64q6 -62 -57 -62q-40 0 -119.5 1t-119.5 1t-121 -1t-122 -1q-120 0 -362 2q-36 0 -49.5 11.5t-15.5 45.5
q-6 78 -6 158q-1 59 0 168t1 144q0 316 -2 406q-1 27 -13 162q-7 62 27 100q25 28 16 60q-10 33 21 56q8 5 16 15q31 33 -2 63q-8 6 -23 17.5t-22 17.5q-58 49 -11 107zM607 1109q14 -1 27 11t14 26q1 13 -11 27t-25 15q-14 2 -30.5 -10.5t-17.5 -25.5q-1 -12 14 -26.5
t29 -16.5zM653 1014q23 17 24 26q1 6 -3 13q-1 3 -10 4t-13 -1q-21 -15 2 -42zM862 2576q-3 2 -9 7.5t-9.5 7.5t-7.5 2q-2 0 -5 -2t-7 -6l-6 -6q1 -1 8 -8.5t12 -9.5q2 -1 24 15zM895 2318q-17 15 -18 14q-14 -8 -18 -18q0 -1 2 -4t6 -7l6 -6q13 13 22 21zM591 1001
q-10 -10 -10 -11t8 -14l8 8q0 1 -6 17zM671 1954q4 6 7 9q-7 2 -19 8q0 -1 -1.5 -3t-2.5 -4q2 -2 8 -5.5t8 -4.5zM761 2502q2 -1 4 -4q4 -4 5 -3q7 0 9 7q0 2 -3 5t-4 3q-3 0 -11 -8zM841 2489q6 3 8 5q-1 3 -5 9l-6 -3q0 -2 1.5 -6t1.5 -5zM916 1870q-3 0 -6.5 1.5
t-5.5 1.5l-5 -5q5 -7 8 -7q2 0 9 9z" />
    <glyph glyph-name="M" unicode="M" 
d="M1237 1571q-17 -106 -20 -130q-8 -82 -21.5 -179.5t-24 -164t-30 -183t-27.5 -168.5q-8 -46 -21 -60t-50 -15q-10 -1 -58.5 0t-57.5 1q-36 0 -42 43q-10 62 -29.5 179t-28.5 170q-23 153 -38 276q-1 9 0.5 20t4.5 25t4 22q5 21 4 24q-13 39 26 67q34 25 27 80q-8 8 -17 9
t-14.5 -2t-14.5 -9.5t-14 -8.5q-13 35 -21 62q-3 -1 -9 -1q-6 -93 -6 -94q-1 -114 -3 -322.5t-3.5 -379.5t-2.5 -323v-130.5v-154v-130.5q0 -24 -3 -48q-7 -39 -37 -39q-116 -2 -174 -1q-21 0 -27.5 8t-7.5 34q-1 49 -1 146q0 385 1 577v10v10.5t0.5 9.5t1 10l1.5 9t3 9.5
t5 7.5t6.5 7.5t8.5 6.5q8 5 10 23q4 63 55 89q3 2 6 5.5t6.5 9.5t6.5 10q-31 26 -55 3q-8 -7 -21.5 -23t-17.5 -20q-15 31 -14 44t19 26q6 4 21.5 13t24.5 15q-10 18 -30 58q43 -13 54 -14q51 -9 54 36q2 33 -10 49t-43 17q2 -16 4 -46q-27 -15 -37 15q-3 10 -9 30.5
t-9 31.5q11 4 33 11t33 11v9q-17 4 -22 5q-5 0 -22.5 -1t-26.5 0q-12 0 -20 7t-7 20q0 36 11 49q24 30 56 50q29 17 15 62q-15 2 -47 6q-31 4 -32 30q-7 115 8 200q22 -48 71 -58q23 -4 44 12t28 44q7 31 -17 44l-62 27q-2 32 -2 51q-1 15 -6 25t-15 9q-9 -1 -22 -27
q-1 -2 -12 -44q-29 37 -13 87q3 11 8.5 22t14.5 26.5t13 23.5q-28 9 -42 14q0 7 -1 28.5t0 32.5q12 261 17 383v194v43q2 39 11 50t39 12q34 1 91.5 1h91.5q41 2 48 -44q4 -23 12 -64t13.5 -76t8.5 -66q9 -92 24 -200t27.5 -183t34 -202.5t31.5 -187.5q8 -52 19 -151
t13 -116q2 -14 8 -50q2 0 5.5 -0.5t4.5 -0.5q10 35 11 42q30 275 85 574q8 42 19.5 122t17.5 116q11 59 89 446q8 41 40 41q163 0 196 -1q21 -1 28.5 -10.5t9.5 -36.5v-70q0 -597 -1 -895q-1 -92 -5 -263t-5 -212q-3 -117 -4 -140q-3 -51 -16 -93q-8 -35 4 -56
q19 -34 17 -93l-6 -372v-11t-1 -11q-15 -49 -17 -101.5t3.5 -127t6.5 -102.5q1 -44 -7.5 -56t-42.5 -13q-15 0 -60 -1t-70 0q-40 1 -53.5 18t-10.5 63q12 107 9.5 493.5t-0.5 493.5v118q0 46 27 62q15 9 19.5 31.5t-3.5 38.5q-7 16 -13 35t-9 33t-6.5 37.5t-4.5 34t-3.5 38
t-3.5 35.5q-1 7 -1 21q-6 2 -9 2zM635 1564q1 -4 1 -11q24 -5 31 -4t20 5t19 5q24 3 30 10t7 34q2 73 0 145q0 3 -11 36q-14 -40 -14 -41q-9 -53 -10 -91q-3 -32 -13 -49.5t-35 -21.5q-4 -1 -8 -3.5t-9 -7t-8 -6.5zM1302 1531q3 -38 34 -51q4 -2 11 1t7 6q2 23 -5 27t-47 17
zM590 1487q-7 12 -9 15t-7.5 9t-10.5 5.5t-12 -5.5q-3 -2 -5 -8.5t0 -9.5q14 -29 44 -6zM725 1862q0 2 -0.5 6t-0.5 6l-24 -3q1 -4 1 -11q8 0 24 2zM576 1304q-9 9 -10 9t-10 -9q8 -10 9 -10t11 10z" />
    <glyph glyph-name="N" unicode="N" horiz-adv-x="1158" 
d="M714 2687q33 -33 77 2q41 -19 44 -20q31 -6 40 -35q14 -39 27 -88q56 -205 78 -292q6 -25 49 -222q6 -26 48 -216t63 -290q8 -34 16 -72.5t17.5 -85.5t14.5 -73q16 -77 34 -142v107q1 106 0 106q-4 170 -14 524q-8 252 -7 291q1 57 9.5 166t9.5 125q2 28 3 46
q-7 -2 -19.5 -5.5t-16.5 -4.5q-10 72 0 130q4 34 56 36q108 0 162 1q21 0 31 2q23 4 33.5 -1.5t17.5 -27.5q7 -20 7 -45q8 -220 9 -329q1 -110 4 -330t4 -330q2 -290 6 -435q2 -63 10.5 -189.5t10.5 -190.5v-53t-2 -53.5t-3 -53.5q-5 -115 -2 -141q13 -112 17 -308
q2 -96 2 -143q0 -22 -4.5 -27t-24.5 -6q-150 -2 -225 -1q-31 1 -44 12t-20 43q-21 91 -62.5 273t-62.5 273q-12 53 -38 155t-38 151q-9 40 -26 116t-19 86q-3 9 -8.5 27.5t-7.5 28.5l-54 243q-3 10 -9 32t-9 35q-13 -20 -8 -64q18 -293 18 -295q3 -80 5.5 -227t4.5 -204
q1 -83 5.5 -249t5.5 -249q1 -26 -2 -153q-2 -23 -9.5 -31.5t-29.5 -8.5q-146 -2 -221 -1q-29 0 -39 11.5t-10 42.5q0 23 3 109t2 132q-3 97 -20 582q-1 27 -4 82t-4 83q0 14 1 21q5 27 8.5 54t4.5 61t1.5 51.5t0 61t-0.5 54.5q0 203 -4 305q-5 155 -17 350q-7 109 -23 350
q-2 18 -14 91q-2 15 -2 17q7 21 3.5 77t-1.5 77q1 14 3 21.5t9 15t20 8.5q4 1 11 7.5t10 8.5q26 14 43 3q23 -15 31 -14t35 19zM867 1375q-17 15 -18 15q-3 1 -7.5 -4t-4.5 -8q1 -4 5 -10.5t5 -7.5q12 8 20 15zM905 1753q-21 14 -32 -4q-2 -7 2 -11q12 -10 29 9q1 1 1 6z
M805 1734q-9 -18 -9 -19q-1 -1 3.5 -5t5.5 -3q9 5 12 14q0 1 -12 13z" />
    <glyph glyph-name="O" unicode="O" horiz-adv-x="1150" 
d="M550 1421q6 252 10 373q0 8 2.5 24.5t3.5 25.5q13 141 14 160q6 208 65 401q74 245 334 283q144 21 279 -35q149 -63 200 -233q24 -81 36 -126.5t22.5 -116.5t7.5 -132q-1 -18 3.5 -52t4.5 -48q6 -242 9 -362q2 -61 -30 -99q-12 -13 -28 -41q-12 -23 -4.5 -45t30.5 -33
q34 -15 37.5 -24t-7.5 -47q-13 -43 -14 -48q-12 -68 -9 -88q17 -144 9 -231q-6 -64 -2 -191q3 -102 -35 -330q-15 -90 -53 -178q-76 -174 -266 -215q-188 -39 -339 39q-103 53 -160 177q-60 129 -77 322q-24 269 -40 573q-3 44 -3 93t1 111t1 93h-2zM932 411q21 6 33 -1
t23 -24q27 -44 86 -35q42 5 60 59q4 15 5 20q4 27 14 76.5t16.5 90t8.5 76.5q6 123 2 372q-2 133 -14 801q0 34 -4 106q-2 30 -5 85t-6 100.5t-7 85.5q-2 20 -24 76q-11 31 -49 36q-42 5 -62.5 -7.5t-34.5 -53.5q-10 -33 -12 -53q-3 -34 -9.5 -105t-10.5 -126t-6 -105
q0 -1 -6 -499q-1 -2 -13 -16q-15 41 -43 115q2 -50 17 -182q34 -297 42 -396q5 -50 7 -142t4 -124q1 -21 0 -33t-7.5 -26.5t-20.5 -24.5v-4t-1 -5q4 -6 14 -18t15.5 -21t6.5 -18q1 -10 -1.5 -21.5t-8.5 -30t-9 -28.5zM1370 1138h-40q14 -79 14 -81q31 11 34 21t-8 60z
M1273 974q16 -11 17 -11q10 -1 34 0.5t41 -2t32 -15.5q2 -1 28 12q-36 23 -74.5 25.5t-77.5 -9.5zM1496 1257q7 15 6 28t-16 23q-7 -5 -22 -16t-24 -18q26 -9 56 -17zM810 438q44 -13 52.5 -8t6.5 41q-9 -5 -28 -16t-31 -17zM1326 1165q5 5 14 15t13 14q-2 2 -6.5 6t-8 6
t-6.5 2q-9 -1 -12 -7t-1.5 -13.5t7.5 -22.5zM1344 1438q-16 -12 -18 -28t3 -29q1 0 4 -0.5t5 -0.5q4 38 6 58zM1232 1216q12 16 12 17q-2 4 -7.5 10.5t-7.5 8.5q-10 -12 -9 -14q1 -5 12 -22zM1280 891q-16 20 -17 20q-3 0 -18 -10q8 -14 10 -14zM1397 1341q4 -2 10 -6
q13 8 16 14t-8 27q-15 -30 -18 -35zM1421 1192l-22 8l-9 -9q11 -11 12 -11q2 0 4.5 1.5t6.5 5t8 5.5zM1425 714q-4 -10 -9.5 -23.5t-7.5 -18.5q22 3 24.5 13t-7.5 29zM1307 1062q-11 18 -16.5 19.5t-25.5 -6.5q8 -2 21 -6t21 -7zM1455 1097q-2 1 -6.5 1t-6.5 1
q0 -4 -1 -12.5t-2 -13.5l12 -1q2 9 4 25zM1271 1119v9q-14 2 -22 2l-1 -2q0 -1 -0.5 -3.5t-0.5 -3.5q8 0 24 -2zM1313 1770l9 12q-4 0 -10 2t-10 3q-4 0 -12 -4q10 -15 12 -17h2q2 1 4.5 2.5t4.5 1.5zM832 304q9 19 9 20q-1 6 -13 8q-2 0 -5 -4t-3 -6t2 -4.5t5 -6.5t5 -7z
M1340 896q-16 9 -17 9q-3 -1 -7.5 -5t-6.5 -5q7 -10 9 -10t22 11zM915 626q-6 8 -8 10q-8 -8 -8 -9t6 -10q1 1 4.5 4t5.5 5zM1314 1624q-3 6 -5 7q-2 0 -8 -4q0 -1 3 -4.5t4 -5.5q1 1 3 3.5t3 3.5zM1357 1011q1 2 2.5 4t2.5 4q-1 0 -5.5 2t-7.5 2q-5 0 -7 -5q-3 -5 3 -8
q2 -1 6.5 0t5.5 1z" />
    <glyph glyph-name="P" unicode="P" 
d="M566 745q-12 11 -21 23t-14 27.5t-8 26t-3 30.5t0.5 28.5t2.5 32.5t2 31q7 139 2 342q-3 143 -13 480t-14 519q-2 98 13 332q4 48 20.5 65t62.5 18q21 1 100.5 4t112.5 3t95.5 -1.5t112.5 -8.5t99 -20q190 -48 265 -229q16 -37 14 -45q-11 -58 34 -88q5 -3 6.5 -12t2 -26
t1.5 -25q-107 31 -111 32q-6 -12 -9 -19q7 -5 20 -16t23.5 -18.5t21.5 -9.5q45 -11 63 -39t29 -80q55 -262 -18 -595q-38 -172 -159.5 -273.5t-304.5 -118.5q-14 -2 -43.5 -4.5t-45.5 -4.5q-2 -14 -7 -43t-7.5 -51.5t-2.5 -43.5q1 -133 14 -809q0 -12 2 -38
q1 -75 -19.5 -96.5t-95.5 -22.5q-128 -2 -165 -1q-51 2 -69.5 20t-19.5 67q-2 103 0 409q0 114 3 142q2 15 6 31t11.5 39t10.5 36zM891 2384q-8 -133 -8 -136q-1 -152 1 -456q2 -245 5 -294q2 -55 32.5 -70.5t75.5 16.5q36 23 56 73q20 49 25 111q2 27 9 173t16 224
q13 125 -73 288q-45 84 -139 71z" />
    <glyph glyph-name="Q" unicode="Q" 
d="M583 592q-30 115 -34 138q-25 131 -29 188q-11 161 -18 406q-13 477 48 899q22 161 97 294q49 85 138.5 131.5t183 49t181.5 -35t135 -109.5q96 -149 82 -303q-8 -72 5 -103q19 -43 29.5 -96t12.5 -91t3.5 -102t3.5 -94q2 -84 1.5 -121t-5.5 -121t-6 -121
q-2 -101 -1 -121q20 -360 -42 -690q-16 -82 -60 -179q-28 -62 -14 -87.5t81 -30.5q96 -8 111.5 -23.5t11.5 -96.5q-1 -16 -1 -25q-4 -90 -45.5 -123t-143.5 -23q-149 15 -313 120q-44 28 -94 39q-85 17 -148 68.5t-131 137.5q-77 95 -39 225zM838 1732q0 -5 5.5 -55t6.5 -78
q4 -158 10 -472.5t9 -471.5q1 -46 22 -118q17 -55 73 -50q47 3 59 55q4 20 11 66t12 70q18 86 34 115q22 41 9 80q-31 99 -31 265q3 539 -2 971q0 23 -4 50t-8 46.5t-11 51t-10 47.5q-5 22 -19.5 36t-35.5 9q-47 -11 -60 -39q-19 -39 -23 -100q-4 -53 -9 -160t-9 -160
q-2 -22 -6.5 -47t-11.5 -58t-11 -53zM579 1490v-126h104q-3 8 -11.5 29.5t-13.5 31t-15.5 24.5t-26 24.5t-37.5 16.5z" />
    <glyph glyph-name="R" unicode="R" 
d="M1149 2630q2 0 10.5 2.5t12 2.5h10t11.5 -3t10 -8q6 -6 30 -4q40 3 68.5 -16.5t58.5 -57.5q7 -9 0 -36q-5 -27 15 -30q21 -3 34.5 -15.5t19 -24t12.5 -33.5q59 -168 59 -394q0 -244 -66 -468q-32 -109 -131 -208q-10 -10 -24.5 -19t-33.5 -18.5t-29 -15.5q-5 -2 -26 -15
q10 -2 25.5 -5.5t22.5 -4.5q90 -17 124 -99q23 -58 31 -118q14 -117 34 -353q1 -11 36 -476q8 -92 10 -138q3 -66 -61 -69q-170 -6 -255 -6q-31 0 -44.5 12t-15.5 44q-18 305 -20 419q-1 36 -8.5 101t-9.5 85q-3 35 -8 115t-9 123q-8 78 -24 156q-12 56 -59 77q-18 8 -27 9
q-45 9 -46 -36q-1 -28 -1.5 -84.5t-1.5 -84.5q-5 -257 -9 -308q-16 -202 -12 -404q4 -100 4 -150q0 -35 -15 -50.5t-51 -16.5q-84 -2 -251 0q-26 1 -37 12t-11 37q-2 207 3 289q1 12 4 32.5t5.5 34.5t1 32t-7.5 34q2 21 5 72.5t7 88.5t13 72q2 7 0 30q-1 10 -3.5 27.5t-4 32
t-1.5 27.5q0 8 12 404q1 33 5 135t5 158q0 17 -7 107q-1 10 -4 34t-4 37t-1.5 33t2 37t7.5 34q6 19 -1 42q-11 38 6 67q8 13 9 29t-0.5 24t-6.5 29q-10 42 -10 79q1 25 6.5 136t6.5 171q2 19 0.5 115.5t-1.5 115.5q0 42 15 57.5t57 16.5q189 7 323 7q53 0 122 -12
q42 -7 52.5 -14t32.5 -40zM1110 2256q-29 5 -37 10.5t-21 31.5q-31 61 -100 76q-30 6 -41 -2t-12 -37q-4 -159 -5 -235q-1 -90 -2 -271t-2 -272q0 -13 -1.5 -38.5t-1.5 -38.5q0 -48 48 -39q17 4 40 15q59 31 82 105q6 19 11 37.5t9 40.5t6.5 37t5 41t3.5 37t3.5 41.5
t3.5 38.5q6 57 19 86q43 94 59 147q19 65 74 88q7 3 18.5 10.5t12.5 8.5q-18 30 -27.5 34t-34.5 -11q-33 -18 -39 -20q-21 -7 -32 2.5t-7 30.5q1 5 14 36t-6 45q-14 12 -12 47q8 82 13 122q4 34 -13 50q-40 -10 -38 -48q0 -10 2 -30.5t2 -30.5q4 -94 6 -145zM1239 2512
l-35 -10t-4 -12q2 -7 11 -9q13 -1 20 6.5t8 24.5z" />
    <glyph glyph-name="S" unicode="S" 
d="M899 1283q-10 4 -18 9.5t-14 9.5t-12.5 12.5t-9.5 11.5t-8.5 14.5t-6.5 13t-6 14.5l-6 14q-1 3 -3 8.5t-3 8.5t-4.5 6.5t-9.5 5.5q-4 0 -6 4q-3 11 -23.5 46.5t-19.5 59.5q0 19 -5 20q-21 6 -23.5 22t3.5 29q-3 3 -12.5 6.5t-13 8t0.5 13.5q1 1 1 2.5t-1 1.5
q-21 15 -38 56t-33 56q-6 6 -9.5 13.5t-7.5 20.5t-6 17q-122 307 -6 675q42 131 144 198q66 44 118 25h12q3 4 9 12.5t10.5 13.5t9.5 6q39 8 78 0q4 -1 14.5 -3.5t16 -3t13.5 -0.5t14.5 3.5t12.5 10.5t27 5q6 -1 27 -2t30 -3t23 -9t22 -19q1 -2 20 -7q-10 -34 29 -39
q37 24 51.5 23t48.5 -31q93 -82 117 -184q62 -247 52 -398q-3 -50 -19 -105q-16 -52 -81 -61q-28 -4 -91 -13.5t-97 -14.5q-18 -3 -33 -2q-26 2 -36.5 15t-1.5 35q4 10 27 50q-18 25 -27.5 54t-10.5 56t-1 58v58q-3 76 -37 150q-10 20 -26 33q-24 19 -55.5 17t-51.5 -25
q-26 -30 -33 -83q-16 -117 19 -282q45 -214 209 -456q101 -150 229 -426q41 -86 64 -251q28 -196 7 -320q-9 -55 -55 -66q-26 -5 -14 -28q2 -3 5.5 -8.5t4.5 -8.5q28 -48 17.5 -80t-63.5 -61q-16 -8 -23 -12.5t-15.5 -14.5t-11.5 -23q-1 -4 -7 -7.5t-18 -8.5t-16 -7
q1 -4 5 -15t6 -19q-41 -31 -68 -54q2 -4 4 -6q31 10 41 11q16 4 22 -4q8 -11 0 -23q-4 -9 -21 -22q-58 -48 -128 -67q-154 -41 -295 -8q-147 34 -216 160q-63 115 -83 246q-30 189 -21 380q2 34 13.5 46t49.5 16q38 5 231 25h8q35 2 44.5 -6t10.5 -39q0 -98 1 -148
q2 -68 8 -214q0 -4 11 -58q13 -53 57 -61q64 -13 102 26q25 29 30 52q21 100 23 160q5 202 -54 345q-8 18 -16 35l-129 264q-1 2 -3.5 6.5t-3.5 6.5t-1.5 6t1 7t5 6.5t9.5 6.5zM1214 1096q39 -13 37 -59q0 -6 5 -62q0 -3 1.5 -6l3 -6l2.5 -5q6 0 9 1v46q-7 31 -3 69t31 63
q-46 16 -61.5 8.5t-24.5 -49.5zM1217 302q55 -13 65 5q11 19 -27 41q-7 -9 -20.5 -25.5t-17.5 -20.5zM1232 436q-33 -18 -33 -42q6 1 21.5 3t24.5 3q-1 3 -6 15.5t-7 20.5zM1172 324q-29 13 -36 12.5t-19 -14.5q24 -16 33 -15.5t22 17.5zM833 224q-5 -6 -16 -17.5t-15 -17.5
q1 -1 2.5 -3.5t2.5 -3.5q5 1 20 2.5t26 3.5q-11 17 -20 36zM1266 871l30 40q-29 -3 -55 -4q6 -10 25 -36zM1374 980q-30 20 -38 19.5t-18 -21.5q4 -1 13 -3.5t14.5 -3.5t13.5 1t15 8zM1013 204h60q-5 17 -9.5 21t-14.5 0t-36 -21zM1262 442q2 -3 4 -9l24 9l2 12l-15 -6z
M1234 865q0 1 -1 4.5t-2 5.5q-20 -6 -30 -8l3 -9q20 4 30 7z" />
    <glyph glyph-name="T" unicode="T" 
d="M1198 51q-13 -48 -69 -50q-23 0 -69 -0.5t-69 -0.5q-9 9 -18 0q-13 0 -40.5 1t-41.5 1q-30 1 -38 9t-10 39q-1 10 -3 32q6 14 -1 28q-2 18 -3 28q14 68 0 129v11q-2 242 -5 290q-1 14 1 57.5t-2 57.5q-5 30 -5 110q0 19 -0.5 40.5t-1.5 47.5t-1 40q6 36 0 107q0 8 -1 13
q4 31 10.5 37.5t33.5 4.5q28 -1 56 8q11 4 11 12q1 12 -13 14q-9 3 -18 3q-56 1 -68 63q0 3 -0.5 8t-0.5 8q9 36 -9 114q0 29 -1 44q1 6 1 18q1 40 15.5 60t49.5 31l34 10q-36 6 -75 34q-23 15 -10 36q8 15 14.5 19t22.5 -1q2 -1 9 -5t9.5 -5t10.5 -3t12 2q-2 17 -4 43
q-2 27 -16 31q-16 3 -36 26.5t-37 26.5q10 13 34 19.5t31 15.5q4 5 24 12.5t18 20.5t-10.5 16t-23 1.5t-19.5 -0.5q-33 7 -34 34q0 18 -5 112q70 -52 128 19q-8 7 -17 9t-16 1t-16 0h-18q-17 1 -25 3q-26 8 -26 39q0 8 4 11t12.5 3.5t10.5 1.5q12 4 9 12q-43 8 -53 19.5
t-15 60.5q-2 25 -7 36q2 18 3 26q2 126 -4 205q-1 23 -26 31q-19 3 -26.5 3.5t-25.5 -2t-26 -2.5h-11h-34q-11 8 -27 5q-29 1 -86 1q-24 23 -26 67q-1 12 -4 36.5t-3 36.5q-1 17 -7 66t-5 76q2 38 18 49q4 1 11 1h2l3 1q9 -1 28 -1q11 -6 20 -4h39q38 -6 92 -1h32
q13 -13 33 -8q13 4 39 2q98 -9 296 -3h82q103 -7 172 5q11 -1 33 -5h21h24q32 -7 38.5 -13.5t10.5 -37.5q3 -27 4.5 -59t1.5 -54.5t-0.5 -61t-0.5 -56.5q0 -32 -24 -33q-12 0 -38 -6.5t-40 -5.5q-53 2 -161 0q-35 0 -43 -9t-9 -48q-3 -180 -5 -216q-1 -16 1 -44t2 -38v-180
q2 -50 3 -173t4 -190q3 -47 3 -136.5t2 -131.5v-34q0 -7 -1 -27.5t-1 -30.5t1.5 -26t6.5 -29q0 -22 5 -68.5t4 -71.5q-2 -42 6 -63q1 -5 1 -16q-8 -10 -2 -20v-46q0 -4 -2 -12q0 -42 -2 -128q-12 -21 -2 -37q-8 -68 -7 -101q0 -48 -0.5 -145t-0.5 -145q0 -46 6 -64
q-3 -16 -3 -81q-10 -9 -5 -22zM943 2102q12 1 26 11t13 18q-2 29 -27 29q-13 1 -23.5 -12t-8.5 -28q2 -20 20 -18zM946 2254q0 22 -15 22q-24 -2 -25 -21q-1 -21 20 -24q11 -1 15.5 5.5t4.5 17.5z" />
    <glyph glyph-name="U" unicode="U" 
d="M1470 883q20 -3 25.5 -16.5t4.5 -36.5q-8 -194 -13 -291q-4 -86 -17 -134q-55 -219 -201 -334q-33 -28 -84 -43q-190 -56 -350 -1v20l-1 1l1 -1v-20q-18 6 -28 9q-140 59 -219 218q-58 116 -67 246q-8 102 -10 153q-7 138 -7 475q0 36 3 320t1 433q-2 104 -6 314
q0 4 1 39t-3 39v18v80q4 13 3 138.5t-1 138.5q0 45 10.5 57.5t51.5 12.5q221 0 249 1q16 0 31 -3q28 -4 25 -29q-3 -19 -2 -56.5t-2 -55.5q-1 -4 -4 -25.5t-3.5 -30t-1.5 -25t0.5 -30t4.5 -26.5q-5 -12 -2 -27q0 -3 -0.5 -8.5t-0.5 -8.5q-2 -21 0.5 -59.5t2.5 -49.5
q1 -86 1 -257t1 -256q0 -253 2 -292q2 -67 3.5 -202t4.5 -202q3 -73 4 -219t4 -219q6 -172 35 -273q11 -42 43 -50q6 0 16 8.5t14 4.5q10 -11 34 -4t33 4q5 -2 9.5 3.5t1.5 10.5q-2 3 -3 6.5t-1.5 5.5t0.5 5l1.5 4.5t3 4.5t3 3.5t3.5 4.5l4 3q16 16 23 45q17 74 17 107
q7 270 4 355q-1 20 1 60q0 27 24 30q8 1 24.5 6t26.5 7t24 0t26 -10q12 -6 18 5q11 24 -5 46q-19 23 -35 12q-7 -5 -15 -7.5t-17.5 -3.5t-15.5 -1.5t-17.5 0t-15.5 0.5q-25 1 -24 28q0 8 2 34.5t2 40.5q4 240 -2 389q-1 22 0.5 36t12.5 27.5t32 18.5q7 1 10 6t1.5 12
t-6.5 14q-3 4 -21 11q-18 8 -18 29q-1 16 19 47t34 36q13 6 18 -1q5 -9 -4 -20q-1 -2 -13.5 -17t-16.5 -24t0 -16t11 -3q14 2 17 3t16 -3.5t16 -5.5q1 2 2.5 6t2.5 6v9.5t0.5 9.5t1.5 8.5t3 7.5t5.5 5.5t8.5 2.5t12 -1q3 -1 5.5 2.5t3.5 7.5q2 21 27 21q19 0 9 20
q-6 12 -16 38q-15 6 -25.5 8.5t-24 -0.5t-24.5 -14q-5 -5 -16 -3q-19 4 -55 12q-19 4 -21 30q0 8 4 13t8 5.5l12 1.5q14 0 23 2.5t13.5 10.5t6 11.5t4.5 17.5q5 20 -14 30q-21 9 -29 10q-22 1 -24 30q-4 50 -10 160q-4 82 -14 246q1 8 4 31t3 31t-1 31q-2 8 4 20t6 18
q2 91 -2 120q-10 56 -3 67t59 19q18 3 69 1q15 0 18 -9q3 -11 -10 -21q-14 -11 -32 -21q-1 -10 10 -14q36 -13 31 -50q-1 -3 2 -11t3 -10q2 -16 9 -17t8.5 2.5t2.5 12.5q2 17 27 25q17 7 19 -10q1 -29 26 -39q3 -1 5.5 -9.5t7.5 -10.5q8 0 13 11q12 22 19 26.5t23 -0.5
q38 -10 40 -49v-52q-12 -5 -11 -11q0 -5 11 -5v-52q-14 -6 -11 -24q1 -19 -5 -40q-8 -25 -6 -32.5t23 -23.5v-15q-17 -8 -18.5 -12t7.5 -17q2 -2 6 -5t5 -4v-30q-5 -5 -16.5 -15.5t-17.5 -15.5q-15 -14 -17 -26.5t8 -30.5q2 -2 5 -7t5 -8t3.5 -7.5t1.5 -9.5q-3 -1 -9.5 -4
t-9.5 -4q-8 -2 -13 -4q5 2 13 4q-2 -12 4 -22q12 -24 17.5 -25t21.5 19q1 1 9 -1q2 -11 2.5 -22t-1 -24.5t-2 -20.5t-3.5 -24.5t-4 -21.5t-11 -14q-30 -35 7 -55q20 -10 11 -33q-3 -6 -9 -15q-14 -19 1 -32q12 -12 7 -23q-5 -10 -15 -15t-19 0q-20 11 -29 -7q-5 -11 -15 -14
q-14 -4 -9 -24t29 -29q4 -1 7 -1t5 0.5t4 3t3 3.5t3 5t3 5q10 16 31 12q12 -2 12 -21v-180q0 -18 -14 -23q-23 -7 -9 -31q9 -14 1 -19q-7 -6 -19 2q-40 35 -31 77q6 22 0.5 26.5t-25.5 -1.5q-14 -4 -20 -6q-12 -4 -11 -13q5 -28 -24 -53q-7 -7 -5.5 -15.5t11.5 -13.5
q10 -4 17 -4q31 -3 33 -33q2 -15 16 -24.5t27 -3.5q9 2 14 3t10.5 -3t8.5 -7t7 -9t7 -9q15 -15 -5 -36q-15 -14 -17.5 -25t5.5 -29q16 -29 -2 -51q-14 -15 -2 -38q0 -3 0.5 -11.5t1.5 -12.5t5.5 -8.5t13.5 -4.5q0 -3 0.5 -8t0.5 -7q-6 -12 -2 -17q5 -5 5.5 -15t1.5 -12v-1
q-14 -4 -17 -17t1 -24q4 -17 -4 -36q-8 -20 -12 -22t-24 7q-17 6 -24 -8q-11 -20 -1 -30q1 -1 5 -3t5.5 -4t1.5 -6q0 -32 28 -23q12 4 16 -9q4 -9 10 -9zM1437 1055q-10 0 -10 -8q0 -7 9 -9q9 0 10 8q0 7 -9 9zM1417 1097q-11 -1 -11 -16q0 -14 13 -12q11 0 11 15
q-2 13 -13 13zM1389 1885q2 9 -3 12q-5 0 -5 -3q-1 -7 8 -9zM1380 1979q-8 1 -15 -6.5t-7 -17.5q0 -16 16 -16q15 0 19 21q0 18 -13 19zM1384 1619q-9 1 -17.5 -13t-8.5 -29q0 -5 1 -7.5t3.5 -4t4.5 -2t5.5 -0.5h4.5q15 1 19.5 6t3.5 18q0 2 -0.5 9t-1.5 11t-4.5 7.5
t-9.5 4.5zM696 1874q-2 -1 -9.5 -1t-11.5 -2.5t-4 -11.5q-1 -9 8.5 -17.5t17.5 -6.5q4 1 6.5 2.5t4 4.5t2 5.5t1.5 7t1 6.5q1 8 -3 11t-13 2zM722 1571q3 16 -13 18q-9 1 -13.5 -3.5t-3.5 -13.5q2 -34 14 -55q9 13 16 54zM680 1645q8 -5 31.5 11.5t22.5 27.5q0 3 -4 9
q-1 2 -3.5 6t-4.5 7t-4 5q-19 23 1 46q9 11 9 19q-21 11 -35 12.5t-48 -3.5q-19 -2 -21.5 -6t1.5 -25l3 -48q0 -24 9 -30q28 -22 43 -31zM750 1880q-1 -9 3.5 -13.5t12.5 -3.5q16 2 15 15q-2 21 -19 21q-12 -1 -12 -19zM775 1351h8.5t8 0.5t6.5 4.5t3 11q0 15 -11.5 29.5
t-22.5 12.5q-9 -2 -9 -15.5t-1 -14.5q-3 -15 1.5 -22t16.5 -6zM868 181q15 25 -10 30q2 -5 3.5 -10t3.5 -11zM860 229q14 12 35 28q-22 16 -20 35q3 22 -17 28q-9 3 -15 -5q-5 -6 1 -14q21 -20 16 -72zM919 293l1 2q0 1 -1 1t-2 1l-1 -2q0 -5 3 -2zM1250 1240q11 -2 17 3
q-1 5 -10 14q-10 8 -16 4q-2 -1 -2 -10q2 -11 11 -11zM1276 1407q4 25 -13 31q-7 3 -15.5 -6t-10.5 -21q-3 -25 19 -30q9 -2 12.5 2t5 13t2.5 11zM1230 2420q12 0 12 15q0 9 -5.5 17t-11.5 7q-9 -2 -9 -17q2 -21 14 -22zM1297 2394q10 1 30.5 20t22.5 30q2 5 -0.5 9.5
t-6.5 3.5q-11 -1 -17 4t-7.5 11t-2.5 18q0 12 -3 13q-35 16 -48 15q-11 -2 -11 -15t-2 -15q-12 -16 8 -28q19 -12 25 -44q-8 -22 12 -22zM1308 1150q1 0 7 3t8 6t1 9q-2 24 -16 25q-8 1 -11 -5t-3 -15q0 -20 14 -23zM1320 1939q13 -2 16 8q0 10 -8 10q-14 2 -16 -9
q-2 -9 8 -9zM1411 2662q-10 -6 -23.5 1t-18.5 19q-3 11 -8 33q9 1 30.5 4t29 3.5t28.5 -1.5q42 -8 33 -50q-6 -26 -25 -12q-24 20 -46 3z" />
    <glyph glyph-name="V" unicode="V" 
d="M1420 2718q47 -4 66 -32.5t12 -85.5q-6 -60 -21.5 -169t-20.5 -149q-8 -69 -28 -199.5t-32.5 -236t-16.5 -201.5q-14 -31 -21.5 -96.5t-20.5 -96.5q-6 -6 -17 -8q3 -4 3 -9q0 -10 -3 -10q-3 -11 -7 -69.5t-28 -85.5q-7 -9 -22 -16q-2 -1 -10 -4q0 -2 1.5 -7.5t2.5 -8.5
q4 -21 0.5 -84t11.5 -83q-1 -7 -3.5 -21t-3.5 -23t0 -21.5t6 -22.5q-3 -27 -11 -74.5t-11.5 -74.5t-5.5 -75t7 -76q3 -24 1.5 -55t-13.5 -51q-33 -56 -45 -129q0 -24 2 -81t2.5 -88.5t-2 -78t-9.5 -85.5v-12q-3 -9 -3 -20q-1 -1 -3.5 -4t-4.5 -5q-16 -35 -42 -48l-18 -6
q-88 -22 -219 -13q-69 5 -91 22.5t-39 80.5q-13 48 -21 101.5t-14 123.5t-10 103q-17 130 -57 480t-67 541q-9 64 -53 457q-13 105 41 184q6 1 19.5 2.5t20.5 2.5q-7 26 -34 36q-46 20 -58.5 32.5t-2 28.5t53.5 49q26 19 3 43l-1 1q-5 12 -25 61q-16 22 -27.5 49t-17.5 46.5
t-9 54.5t-3.5 48.5t-0.5 55.5v51q0 17 10 31.5t26 17.5q50 9 81 12t75 -1t80 -21q47 -24 51 -89q2 -32 15 -135.5t11 -160.5q15 0 22 1v-2q14 -42 10.5 -128.5t10.5 -128.5q13 -115 25.5 -450t48.5 -517q8 10 13.5 22.5t9 22t6 25t3.5 23t2.5 25.5t2.5 24q2 20 8 79t8 91
q2 30 4.5 86.5t3.5 73.5q8 6 10 22q-4 -8 -10 -22q-7 39 11.5 104.5t19.5 88.5q1 18 15.5 28.5t24.5 12.5t35 6q1 -1 3.5 -3t3.5 -3q8 20 1.5 31.5t-25 22t-23.5 15.5q-21 19 -1 42q9 9 12 22q5 12 7 27q0 8 -4.5 27.5t-2.5 31.5q-17 105 -14 172.5t8.5 172.5t0.5 173
q-2 31 28.5 84.5t31.5 83.5h1q55 27 129 28.5t131 -7.5zM1157 698v2v-2z" />
    <glyph glyph-name="W" unicode="W" 
d="M989 1270l-12 -126q-19 -167 -28 -237q-1 -6 -17 -52q-8 -27 -7 -31q5 -17 0 -75q-2 -25 -4 -71t-3 -64q-2 -48 -7 -85q-30 -245 -34 -415q-2 -28 -4 -43q-7 -56 -39 -56q-55 -2 -166 0q-24 1 -28 41q-10 98 -11 116q-9 159 -25 452q-4 73 -11.5 219t-11.5 219
q-18 380 -28 569q-6 103 -18.5 307t-17.5 304q-6 113 -16 337q-2 38 0 74q1 61 41 65h67q71 0 86 -1q19 -2 26 -11.5t8 -37.5q8 -244 12 -365q2 -60 6.5 -180.5t6.5 -180.5q2 -78 2 -93q-1 -95 17 -364q2 -32 4.5 -90.5t3.5 -76.5q2 -22 6 -68h5q0 2 2 6.5t3 7.5q5 46 27 68
q17 18 8 47q-21 63 -12 163q7 76 20 227t20 227q9 104 29 312q2 20 4 30q7 39 27.5 57t45.5 6q22 -12 54 -1q41 11 53 12q14 1 21.5 -10t7.5 -33q1 -70 14 -200l15 -150q6 -83 13 -176.5t15.5 -206.5t13.5 -177q0 -3 9 -170q2 -13 11 -21q1 16 3 47.5t3 47.5q16 356 25 534
q4 79 9.5 167.5t12.5 195.5t11 167q5 94 12 185q9 99 73 103q46 2 112 -1q24 -2 33.5 -15t11.5 -51q3 -36 -1 -89q-5 -78 -17.5 -235t-17.5 -236q-2 -33 -4 -100t-4 -101q-2 -42 -17 -255q-1 -26 -3 -77.5t-4 -77.5q-2 -27 -8.5 -96.5t-8.5 -107.5q-2 -32 -4 -97t-4 -97
q-9 -121 -29 -363q-19 -247 -24 -433q-1 -70 -12 -174q-8 -90 -74 -102q-22 -5 -84 -7q-29 0 -45 22q-5 7 -19 13q-23 11 -26 48q-36 428 -40 501q-13 245 -29 397q-5 46 -12 132t-10 118q-1 8 -3.5 22.5t-2.5 17.5q-2 -1 -7 -1zM1191 1115q-1 14 1.5 54t-2.5 58
q-29 -42 -31 -46q-7 -12 4 -27q22 -30 28 -39zM986 2242l3 30q-9 -10 -9.5 -14t6.5 -16z" />
    <glyph glyph-name="X" unicode="X" 
d="M1075 637l-1 1v1q-18 13 -28 33.5t-12 34.5t-5 44q-10 98 -28 294q0 4 -2.5 14.5t-3.5 17.5q-6 -6 -9 -12.5t-3.5 -10.5t-0.5 -12v-10q-1 -13 -5 -87t-9 -113q-18 -149 -47 -314q-11 -61 -83 -446q-11 -62 -69 -63q-11 31 -25 36t-42 -12q-3 -1 -7 -6t-6 -6
q-17 -12 -24 -13q-98 -6 -151 -8l-14 6q21 104 79 391.5t100 487t85 388.5q21 4 29.5 3t36.5 -10q-5 28 -6 29q-13 21 -6 58q3 14 8 42.5t8 42.5q13 63 0 100q-11 34 5 101q1 5 4 18t5 21q-35 0 -38 -1q-32 -7 -48 23q-30 60 -37 86q-24 93 -63 264q-80 368 -119 553
q-10 41 -7 78q1 22 9.5 31t30.5 11q15 1 32 1.5t38 1t32 0.5q57 0 85 -2q46 -4 61.5 -19t26.5 -63q18 -92 28 -137q30 -131 63 -422q26 -220 40 -330q0 -9 10 -18q0 4 2 13.5t2 15.5q17 277 98 745q14 85 24 161q5 29 15.5 39.5t37.5 11.5q15 1 92 1q87 0 131 -1
q24 -1 31.5 -9t7.5 -34q0 -27 -7 -60l-78 -381t-77 -381q-36 -175 -76 -393q-6 -27 1 -59l180 -822q9 -39 31.5 -148.5t36.5 -168.5q7 -31 15.5 -66t19 -77l16.5 -66q4 -12 5 -18q3 -30 -25 -33q-15 -2 -45 0q-88 0 -173 3q-44 1 -61 15.5t-28 59.5q-56 240 -82 360
q-12 56 -21 139q0 7 1.5 15.5t4.5 20t4 19.5zM1110 558q38 -12 57 -19v52q-24 2 -31 -2t-26 -31zM1187 685q0 -8 -1.5 -24.5t-2.5 -26.5q4 1 11.5 2t11 2t7.5 3t5.5 6.5t1.5 11.5q-2 30 -33 26zM805 108v13h-22q-1 0 -1 -13h23z" />
    <glyph glyph-name="Y" unicode="Y" 
d="M1498 2631q-16 -9 -6 -28q0 -4 -0.5 -12.5t-0.5 -12.5q-21 -29 -19 -89q-3 -21 -7 -63q-28 -77 -27 -152q-2 -30 -3 -46q-7 -7 -5 -20q-2 -19 -4 -53q-18 -9 -12 -31q-14 -74 -40 -222q-15 -8 -5 -20q-4 -22 -12 -64q-22 -5 -27 -11q-8 -11 -13.5 -25.5t-7 -23t-4 -30
t-3.5 -25.5q-3 -27 25 -55l-3 -27q-14 -9 -18 -14t-1.5 -10t12.5 -15q0 -2 1.5 -5.5t2.5 -4.5q0 -7 -2 -19q-4 -4 -10 -8q1 -10 5 -30q0 -4 -2 -13t-2 -14q-8 -9 -3 -20l-12 -88t-14 -110.5t-6 -88.5q-3 -15 -4 -17q-17 -31 -31 -95t-18 -78q-11 -33 -14 -67.5t-2.5 -88.5
t0.5 -70q-2 -104 3 -296t6 -241q0 -30 6 -41q0 -9 1 -38.5t0 -45.5q0 -34 -12 -41t-41 8q-4 76 -13.5 214.5t-16 252t-9.5 214.5q-11 -2 -13 -18q-14 -98 -8 -195q6 -99 14 -299q0 -29 -8 -40q-9 -10 -18 -8q-9 3 -9 15q5 46 -22 70q-2 2 -5 27q-1 9 -2 26.5t-2 31.5t-2 26
v9.5t-0.5 10.5t-1.5 9t-4 6.5t-8 1.5q-11 -1 -11.5 -15.5t2.5 -24.5q10 -68 0 -135q-4 -22 -8 -25.5t-24 1.5q-35 10 -37 -32q-1 -22 6 -32t21 -9q24 2 31.5 -4t8.5 -30q4 -74 -4 -106q-63 -22 -116 -4q-23 8 -28.5 15.5t-6.5 33.5q-4 118 -5 177q3 41 1 214q-3 212 -9 424
q-3 102 -36 220q-10 33 -19.5 96.5t-14.5 84.5q-1 5 -1.5 14t-0.5 14q11 28 8 41.5t-23 32.5q-2 6 -5.5 15.5t-4.5 12.5q1 1 2.5 4l2.5 5q11 22 9 34t-20 33q-10 36 -10 56q14 18 -7 29q-8 19 -10.5 57t-6.5 52q0 1 -1.5 6t-2 7t-1.5 6.5t-0.5 7t1 6t2 5.5t4 4.5t7 4
t9.5 2.5q15 3 15 36q0 6 1 18.5t1 18.5q3 11 0.5 20t-15.5 10q-10 1 -8 22q0 4 3.5 11t4 11t-2.5 13q-3 38 29 39q35 2 13 33q-13 20 12 20q2 0 7.5 -1.5t8.5 -0.5q26 2 21 37q-5 30 -28 18q-25 -13 -69 -19q-20 -2 -23 -24q-1 -7 1.5 -10.5t9 -6.5t8.5 -4q1 -1 2.5 -3
t3 -4.5t3.5 -4.5q-36 -25 -34 -58q1 -6 -2.5 -11t-9.5 -5q-10 -1 -16 13q-2 4 -5.5 18t-9.5 20q0 11 -6 20q-16 104 -39 151q-3 6 -3 14q-5 47 -24.5 131t-24.5 119q-10 61 -31 130q-11 36 -35 173q-4 21 4 32.5t28 19.5q20 7 71 5q10 0 41 -3t52 -2.5t41 5.5q16 5 42 1
q56 -7 71.5 -23.5t23.5 -74.5q7 -45 40 -213q2 -11 7 -31.5t7.5 -33t5 -30.5t2.5 -33q0 -27 5.5 -84.5t3.5 -87.5q-1 -15 10 -36v-17q-4 -16 0 -39v-26q-3 -23 6 -39q-1 -14 7 -38t8 -36q-7 -10 -1 -20q1 -9 1 -27q-6 -11 2 -19q1 -3 1 -9t1 -9q-3 -10 5 -20l6 -54
q-16 -13 3 -21l4 -8q-1 -1 -2 -5t-1 -5q-13 -6 -10 -15q3 -10 19 -12q4 -7 6 -38q-20 -9 0 -20q0 -6 0.5 -18t0.5 -19q-3 -2 -10.5 -5.5t-11.5 -6t-6.5 -8.5t-0.5 -15q2 -11 9 -15.5t15 -4t17 0.5q2 0 4 0.5t4 0.5q11 3 16 15q7 5 11 11.5t5.5 13.5t2 14.5t0.5 15v15.5
q2 10 0 20t-12 14q-1 1 -3 1t-3 1q3 61 5 70q18 8 19.5 12.5t-11.5 18.5q2 16 -4 29q4 21 5 42.5t1 54v42.5q10 15 5 39q1 5 1 17q1 16 1 48l2 -1q15 7 6 19q1 19 1 59t1.5 70.5t4.5 58.5q14 16 8 47q7 109 13 135q9 42 17 128q5 73 32 196q2 0 8 1t8 2q23 -3 34.5 -3
t34.5 3t34 3h25q54 -11 152 -5h17q9 -6 14 -15t10 -24t7 -20q0 -5 -1 -14t-1 -13zM1230 1586q-6 3 -10 -6q-2 -8 6 -9q8 0 8 8q0 5 -4 7zM1133 1478q0 8 -4 2q-2 0 1 -3l1 1h2zM837 2191q-10 -1 -8 -17q2 -12 10 -12q6 -1 8 3.5t2 11.5q-1 7 -3.5 11t-8.5 3zM683 2024
q20 0 23 20q3 21 -19 23q-23 0 -24 -19q0 -22 20 -24zM816 2092q6 -6 16 -4.5t14 11.5q8 18 -17 30q-14 10 -19 8q-19 -3 -106 -1q3 -17 17 -19h19t21.5 -1t17.5 -3t20.5 -7.5t16.5 -13.5zM1103 1288q6 2 6 9q-2 8 -8 9q-6 0 -8 -8q0 -5 2.5 -8t7.5 -2z" />
    <glyph glyph-name="Z" unicode="Z" 
d="M1498 93q2 -48 0 -59q-26 -19 -75 -21q-40 -1 -137.5 -6t-137.5 -5.5t-137 2.5q-29 0 -98 -2.5t-107 -0.5q-24 1 -215 1q-49 -1 -64 11.5t-15 55.5q0 30 -6 91.5t-6 91.5q0 5 0.5 14.5t1 15t3.5 13t9 12.5q2 1 5 4t5 4q-1 5 -2.5 16t-2 17t-0.5 15t2.5 17t6.5 16
q4 11 15 30t16.5 35.5t2.5 33.5q-4 22 24 36q-4 2 -5 3q-8 25 7.5 67t14.5 60q0 4 2 14q9 29 21 57q10 20 19 28q4 2 7 3q14 6 22 31q33 133 54 189q4 2 5.5 9t5.5 10q0 4 0.5 11t0.5 10l9 9q0 21 -3 31q-6 35 15 93q59 164 97 337q3 34 19.5 95.5t19.5 74.5q8 38 49 48
q48 11 93 49q31 27 -10 32q-23 2 -29 9.5t3 27.5q10 20 -3 43q-4 4 -14 12.5t-13.5 12.5t-8 15t2.5 20q5 4 5.5 15t4.5 15h2q3 31 21 85.5t21 64.5q12 18 17.5 39.5t8.5 49t7 41.5q0 14 6 36.5t8 36t-4 36.5q-3 6 -15 11.5t-16 9.5h-1q-6 6 -4 13q-2 -7 -6 -13q-22 0 -33 1
q-42 -2 -121 5t-117 6q-12 0 -51 1.5t-60 0.5q-37 -2 -48 7t-12 44q0 3 -1.5 8t-1.5 6q8 9 2.5 30.5t-2.5 30.5h-1l-2 1q-4 3 -1.5 29t2.5 29q2 37 -10 51q0 24 -1 29q-9 60 55 75q17 -5 37 -5.5t44 0.5t38 0q135 -7 226 -6q93 2 188 -6q40 4 86 4.5t102.5 -0.5t87.5 -1
q46 2 61 -40q-1 -7 0 -45.5t-9 -45.5q0 -3 -0.5 -9.5t-1.5 -9.5q-4 -2 -2 -7q2 -2 3 -2v-1q5 -10 3.5 -35t6.5 -35q1 -17 -5 -36q-9 -20 -27 -41q5 -4 6 -10t0 -10l-3 -12t-3 -11h-1q-4 -4 -4.5 -15t-5.5 -15q-6 -6 -6 -20t-5 -20q-7 -41 -29 -119.5t-29 -117.5
q-7 -40 -46 -163q-22 -75 -26 -103v-1q-2 -8 -2 -12q-3 -26 -19 -46q-2 -38 -2 -57q0 -13 -8 -20q-7 -11 -12.5 -25.5t-8 -25t-5.5 -28t-5 -25.5q-3 -15 -13 -45q-1 -9 -8 -23q-5 -10 -13 -38.5t-17 -41.5q-1 -3 -3 -7q-6 -22 -29 -37q3 -5 2 -8q-1 -37 -24 -100t-27 -78
q-20 -36 -37 -124q-1 -1 -3 -1.5l-4 -1t-3 -0.5l2 -1q20 2 34 -21q4 -26 -0.5 -55.5t-11 -49t-19.5 -53.5t-18 -49q-10 -27 -41 -27q-12 0 -20.5 6t-11 10.5t-9.5 17.5q-2 4 -4.5 17.5t-7.5 20t-16 4.5q-7 -1 -11.5 -5t-6.5 -11t-3 -12t-1.5 -14.5t-0.5 -12.5q-2 -48 18 -72
q22 -26 4 -56q-11 -17 -15 -26.5t3.5 -19t33.5 -10.5q12 -1 20 -15q1 -5 0 -23t6 -22q-1 -7 -1.5 -26t-3.5 -32t-12 -25q-1 -1 -8 -4.5t-7.5 -4.5t-3.5 -6.5t3 -10.5q3 -54 25 -113q18 24 69 20q52 -4 117 -5t117 -0.5t117 -0.5q42 -1 61.5 -15t28.5 -50q0 -7 -1 -10
q-1 -28 0.5 -59.5t4.5 -70t4 -59.5zM831 2680q11 -5 20 4q-8 -2 -20 -4zM1307 2581q-4 0 -12 2h-1q28 -17 21 -52q4 2 14 6q46 16 50.5 27t-18.5 45q0 -1 -1 -1q1 -6 7 -16t7 -16q-3 -14 -19 -19q-1 -1 -3.5 -1t-3.5 -1q-8 0 -14 3q-5 3 -18 16q-1 1 -4 3.5t-5 3.5z
M1300 2640h3q7 3 10 9q-3 -5 -7 -6l-4 -1zM1321 2663q0 2 2 6q-4 -2 -2 -6zM1328 2674l3 3zM1286 2153q22 -10 30.5 -6.5t21.5 15t22 13.5q-15 4 -16 15q1 6 14 22q2 2 4.5 5.5t3.5 5.5q-4 -1 -12.5 -6t-12.5 -6q-11 -44 -55 -58zM1133 2092q4 -9 3.5 -26t1.5 -26q3 8 10 12
q29 16 56 1q-4 11 -21 15.5t-21 11.5v2q-2 -2 -3 -4q-15 -4 -23 9q0 1 -2 5h-1zM1320 2260q1 12 -1.5 15.5t-18.5 -0.5q12 -4 20 -15zM1209 2291q-10 3 -28.5 -2t-29.5 -6.5t-27 13.5q-14 -18 -13 -26q-2 -15 17 -32q5 -10 5 -12q20 -2 28 12q26 43 57 -7q16 -28 19 -55
q4 5 9 15t8 14q1 2 2.5 5.5t2.5 5.5q1 4 1 26q-4 1 -6 4.5t-4 9t-3 7.5q0 3 -1.5 16t1.5 16h-4q-7 1 -14 0q-6 -2 -20 -4zM1128 2634q0 1 1 1h-1v-1zM856 560l-2 -2q4 -2 6 -2q-3 1 -4 4zM887 605q3 -3 7 -5q-1 1 -3 2.5t-3 2.5l-9 15q4 -7 0 -17q6 2 8 2zM864 639
q2 -3 6.5 -7.5t5.5 -6.5q-5 8 -12 14zM896 1079q8 2 18 10.5t15 10.5q-26 36 -87 27q-4 -6 3 -13q10 -8 14 -12q13 -16 15 -22q1 -2 1 -6h1q3 1 10 2.5t10 2.5zM920 2384q8 -2 25 -2q-16 2 -25 2zM1028 2388q2 15 -4 18q4 -12 4 -18z" />
    <glyph glyph-name="a" unicode="a" 
d="M1483 69q1 -6 1 -17v-17q1 -28 -27 -33q-9 -2 -26 -2h-266q-2 0 -17 3q-16 83 -22.5 236.5t-12.5 207.5q-3 1 -7 2t-7 2t-5 1q-88 1 -176 0q-22 0 -29.5 -7t-11.5 -29q-11 -83 -28 -221l-18 -162q-3 -21 -9 -26.5t-26 -5.5q-47 0 -141 0.5t-141 0.5q-1 0 -14 5
q0 4 0.5 11t1 12.5t1.5 10.5q24 167 72 499q3 24 7.5 68t6.5 58q3 22 5 32.5t12 24t28 18.5q0 10 -1 13q-17 48 -4 142q15 96 43 349q5 51 14 153.5t14 153.5q1 10 3 28.5t3 24.5q24 0 32 13.5t11 38.5q7 29 5.5 64t-18.5 62q-1 2 -2 5t-1.5 7.5t-1.5 7.5q28 16 28 67
q0 49 23 84q5 8 15 61v33l15 6q15 5 18.5 14.5t-8.5 17.5q-24 16 -26 58q-1 10 -2.5 29t-2.5 34t-1 29q0 16 12 76q1 4 5 16t3 20t-9 15q12 90 12 92t4 4t10 4t9 4q-23 19 -18 56q3 22 8 66.5t8 66.5q3 23 10 29.5t29 7.5h79t78 1q7 0 12.5 -1.5t11 -5.5t7.5 -6.5t7.5 -10
t6.5 -9.5q13 4 16 8q20 20 51 23.5t56 -0.5q25 -1 28 -29q6 -74 10 -118q-15 8 -31 7.5t-25.5 -4.5t-26.5 -13q5 -12 13 -30q8 2 32.5 8.5t38.5 9.5q1 -6 3 -16l3 -15q8 -71 23.5 -205t22.5 -196q12 -107 34 -321q29 -299 41 -428q5 -49 13.5 -147.5t12.5 -147.5
q12 -126 35.5 -368t34.5 -356q4 -41 11.5 -125.5t11.5 -128.5zM1128 2649l-15 -30q6 -1 14.5 -2.5t14.5 -2.5q-2 7 -3.5 17t-2.5 14q-2 2 -8 4zM866 2403q-1 0 -4 -3t-3 -4q1 -2 5 -6q2 -3 4 -5q2 3 5 7l2 3q-2 4 -9 8zM1056 780q7 0 43 5q-12 149 -14 181q-20 240 -20 259
q-6 253 -36 543q-1 7 -3.5 22t-3.5 23q-2 0 -5 0.5t-4 0.5q-11 -34 -11 -40q-10 -82 -18 -169q-25 -317 -35 -458q-4 -47 -11 -140.5t-10 -140.5q-1 -37 -29 -65q-8 -8 -22 -25t-16 -19q1 -1 2 -3.5t1 -3.5l69 21zM1009 2251q1 -2 3.5 -7.5t4.5 -7.5q1 -1 9 4l-9 15z
M1078 2519q6 5 20.5 9.5t21.5 12t4 22.5q31 9 35 11q-19 7 -47 9q-12 0 -15 -7q-6 -14 -23 -10q-13 3 -18 -6q-10 -14 -33 -10q-22 2 -34 3q6 -7 33 -22q14 -7 40 -25v-6h-33q-6 -25 -16 -71q1 -1 3.5 -2.5t4.5 -2.5q2 1 8.5 4t8.5 4t7.5 4.5t6 5.5t4.5 7t2 9.5t-1 12.5
q9 1 27.5 1.5t28.5 0.5q-17 23 -35 46zM1139 2452q21 8 22.5 11t-10.5 16q-6 -14 -12 -27z" />
    <glyph glyph-name="b" unicode="b" horiz-adv-x="1200" 
d="M1499 674q2 -19 -2 -53q-12 -18 -17.5 -39t-7.5 -52.5t-4 -42.5q0 -3 7 -21l-3 -18q-13 -6 -18 -24q-13 -48 -39 -142v-1q-6 0 -19 0.5t-19 1.5q-11 0 -17 1q-1 3 -4.5 13t-5.5 16q2 3 16 8.5t12 18.5q-13 25 -27 1q-38 -3 -44 -12.5t9 -44.5q17 -19 7 -35q-4 -5 -42 -71
h-18q-18 12 -27 1q-8 -8 5 -14q1 -1 3.5 -5.5t3.5 -7.5l-3 -21q-12 0 -34 -2q-16 -4 -16 -24q-1 -29 -6 -35t-32 -16q-23 -8 -27 -28q-8 -6 -25 -6q-18 15 -27 -6q-3 0 -8.5 -1t-8.5 -2q-8 13 -13 13q-12 0 -14 -18q-37 -6 -141 -4q-8 9 -17 0h-18l-13.5 4.5t-14.5 4.5
t-13 3t-14 1.5t-13 -1t-14.5 -4t-13.5 -8.5q-24 0 -36 1q-6 15 -28 15q-46 -3 -59 45q-3 11 -3 35q-2 18 -11 23q-1 4 -2 12.5t-1 13.5q25 15 0 28q-2 24 -2 36q21 51 -5 92q-7 30 -5 80q23 41 -4 65q0 5 -0.5 13.5t-0.5 12.5q19 10 -1 19q0 5 -1 14t-1.5 16.5t-0.5 14.5
q-1 51 -2.5 154t-2.5 155l6 18q12 11 -2 19q-3 28 0 79.5t2 74.5q1 1 2.5 4t2.5 4q15 10 1 21q-4 0 -5 -1v36q6 3 5.5 49.5t-0.5 49.5q16 13 2 28q0 11 0.5 34t1.5 34q0 16 2 67.5t2 76t-3 64.5t-11 73q-13 59 36 92q-29 17 -61 19q-4 -5 -5 -10t0 -13t1 -10q3 -96 9 -290
q-17 -11 1 -19v-36q-26 -19 0 -37q1 -6 1 -17q-20 -9 -1 -19q0 -24 -1 -36q-16 -12 -21 -20q5 8 21 20q3 -12 -0.5 -41t3.5 -41v-54q-9 -14 0 -28q-2 -116 -4 -173q-4 -10 0 -19q0 -42 0.5 -125.5t0.5 -124.5q1 -79 2 -238t2 -239q0 -55 8 -72q-2 -5 -1.5 -18.5t-4.5 -21
t-20 -7.5q-31 -1 -45.5 11t-18.5 40q0 15 -1 23q3 8 0 20q0 11 2 35q4 9 0 19q2 18 2 27q13 25 5 73q0 11 1 17q6 18 0 38v53q7 46 -4 73q-2 18 -2 28q4 29 -2 99q-12 138 3 249q14 97 10 312q-3 183 0 213q-1 5 -1 17q24 15 -1 28q0 5 -0.5 14t-0.5 13q7 16 7 21
q1 53 1 161q0 18 -12 27q-3 16 1 28q24 61 2 117q0 3 -0.5 9t-0.5 9q7 8 9 20t1 22t1 22q19 1 30 -7q-11 8 -30 7v36q4 1 17 3t19 3.5t12.5 7.5t7.5 16q2 21 -11.5 38t-36.5 23q-1 13 0.5 37.5t0.5 44t-7 36.5v37q14 28 1 54v63q0 26 19 44q14 6 7 20q5 33 -1 40
q-16 20 -19.5 43.5t-0.5 57t2 49.5q28 -17 45 -61l3 -18q1 -3 3 -10l3 -10.5t3.5 -9.5t5 -9.5t7 -7t9.5 -5.5q2 -2 4.5 -1t4 1.5t3 3t2.5 4t2 4.5t2 4q2 4 9.5 16.5t9.5 19t0.5 17t-10.5 20.5q-23 24 -18 63q0 1 3 32q1 38 -9.5 48t-48.5 8q-17 0 -19 7q-9 37 4 71
q8 17 43 17q42 -1 123.5 -1h132t120.5 -3.5t129 -9.5q259 -28 344 -288q55 -164 38 -382q-27 -14 0 -28q0 -6 -1 -17.5t-2 -17.5q-18 -10 0 -20q1 -20 0.5 -27t-3.5 -26.5t-4 -26.5q-40 -27 -20 -78q-4 -33 -15 -49q-16 -7 -10 -25l-6 -12q-28 -95 -134 -185
q-29 -25 -86 -52q195 -91 254 -310q-6 -31 14 -54l3 -18q-9 -16 6 -28q1 -1 3 -4t3 -4q0 -19 5 -65t3 -71q0 -1 -3 -7t-3 -10q-1 -23 -1.5 -69.5t-0.5 -69.5q0 -18 14 -26v-18q-18 -10 1 -19zM780 2097q-3 15 -30 20q-5 1 -8.5 0t-5 -4.5t-2 -5.5t-0.5 -7.5v-7.5t0.5 -5.5
t0.5 -5.5t1 -5.5t2 -5t3.5 -3.5t6.5 -3q5 -1 19.5 13.5t12.5 19.5zM716 1745q0 -10 10 -10q11 0 11 10q-3 11 -13 9q-8 -2 -8 -9zM703 2356q-2 0 -12 3t-17 2t-14 -7q14 -29 38 -26q13 2 16 13q3 13 -11 15zM651 2152q-6 -19 14 -22q62 -8 94 40q-2 7 -6 11t-12.5 9.5
t-10.5 6.5q-28 20 -40.5 16.5t-28.5 -36.5q-5 -10 -10 -25zM874 1925q0 -42 1 -126.5t2 -126.5q1 -56 9.5 -68.5t60.5 -31.5h25q2 -20 10 -26q25 24 52 16q12 -3 18 3.5t3 19.5q-1 4 -8 20l1 1q29 9 34.5 20.5t-6.5 39.5q1 7 5 26q21 10 6 28q1 5 2 13t1 13q35 15 37 33
q2 22 -29 32q0 6 1 17.5t2 17.5q23 20 0 39v24q7 13 10.5 29.5t3.5 26t-2 32.5t-2 28q-1 3 -5 7.5t-5 6.5l-6 126q-3 74 -26 137q-19 50 -48 68t-81 18q-29 0 -38 -9t-11 -38q-6 -95 -20 -265q-19 -15 -1 -30q0 -6 0.5 -17.5t0.5 -16.5q-21 -15 0 -30q0 -11 1 -16
q-13 -10 -16 -25q3 15 16 25q2 -28 2 -41zM1102 542q18 235 2 426q-11 132 -44 207q-37 85 -126 91q-42 2 -49 -5t-7 -51v-408h3v-227q0 -185 2 -213q2 -21 7.5 -26t24.5 -4q42 3 86 17q39 13 59 51q36 66 42 142zM1271 248q16 2 16 16q-3 12 -13 9q-13 -4 -14 -15
q0 -10 11 -10zM1344 469q5 -47 19 -60.5t43 -1.5q-14 36 -24.5 46t-37.5 16z" />
    <glyph glyph-name="c" unicode="c" 
d="M618 1944q-8 0 -13.5 -2.5t-9 -4.5t-6 -7.5t-3.5 -7.5t-2.5 -9t-1.5 -8l-1 -7q-1 -6 -1.5 -7t-2 -6t-3.5 -7l-5.5 -5.5t-8 -5.5t-10.5 -3q-5 28 -5 30q0 13 0.5 37t0 43t-3.5 35q-13 73 -1 178q20 156 86 286q107 212 357 221q213 8 333 -118q86 -92 121 -224
q7 -26 15 -82q7 -49 21.5 -147.5t21.5 -148.5q1 -11 4 -70q0 -34 -37 -40q-12 -1 -25 -3t-28.5 -5t-24.5 -4q-143 -20 -167 -23q-43 -4 -59.5 9t-19.5 54q-2 23 -8.5 121.5t-11.5 151.5q-7 52 -27 117q-21 64 -96 53q-49 -6 -59 -49q-26 -96 -30 -146q-15 -161 -16 -299
q0 -47 -1 -203t-1 -229t2 -194.5t7 -220.5q1 -20 0 -42.5t-4 -51t-4 -42.5q-1 -11 -3.5 -44t-3.5 -51q-1 -34 -1 -102v-102q0 -47 26 -77q13 -13 20 -36q2 -8 5.5 -17t6.5 -15.5t9 -16t9 -13.5t11 -14.5t10 -13t12 -14.5t11 -13q2 -3 5.5 -5t9 -4.5t9.5 -4.5q27 48 69 55
q7 1 14 12t8 20q1 20 18 159t13 213q-1 28 4 66q3 27 11 33t37 2q63 -7 189 -25q35 -4 69 -12q27 -5 34 -13t6 -35q-5 -76 -17 -228q-2 -27 -8 -77.5t-7 -58.5q-8 -83 -49 -176q-4 -8 -17 -25q-19 17 -68 56q-6 -14 -18 -44t-19 -46q29 -26 16 -73q-8 -27 -41 -32
q-4 -1 -11 1.5t-8 4.5q-2 15 -13 26t-21 15.5t-32 11.5q10 8 27 20t25 18q-9 36 -46 31q-54 -6 -118 -17q-16 -3 -24 -12t-25 -39q38 -28 78 -57q6 -4 25 -4q3 0 8.5 2t8.5 2q19 1 35 -8t17 -22q4 -32 -39 -42q-163 -38 -306 9q-101 33 -178 137q-15 20 -26.5 40t-23 49.5
t-15.5 40.5t-17 51.5t-14 44.5q-6 19 -11 37.5t-9 41t-6.5 37t-5.5 41.5t-4 37t-3.5 42t-3.5 38q-27 305 -27 577q0 19 -3 53.5t-3 49.5q-2 43 2.5 88.5t14 105t12.5 87.5q2 16 11 44.5t11 38.5q4 25 -3 35q-19 28 5 57q34 39 40 44q41 34 24 101zM733 1867q-52 11 -59 -13
q-6 -26 32 -41zM917 56q6 4 15 9t13 8t7 7q9 9 3 22q-7 13 -20 11t-17 -15q-1 -3 -1 -42zM1229 275q1 2 3 7t3 7t2.5 6.5t2 6.5t0.5 5.5t-0.5 6t-2 6t-3.5 6.5q-23 -21 -5 -51zM612 2071q-22 -17 -22 -22t22 -15v37zM1112 264q-5 -7 -12 -17t-10 -14q20 -1 24.5 6.5
t-2.5 24.5zM1375 311q-3 0 -9 1t-8.5 1.5t-6.5 -2t-6 -7.5q-2 -7 4 -10q18 -5 26 17zM652 1473q-6 -10 -6 -11q0 -3 7 -8q6 8 7 11zM802 914q-2 2 -4 5t-4 4l-1 1q-6 -1 -12 -7q-1 -1 2 -4.5t4 -3.5q3 0 15 5z" />
    <glyph glyph-name="d" unicode="d" 
d="M1499 1001q7 -392 -65 -655q-42 -154 -149.5 -242.5t-265.5 -95.5q-84 -4 -241 -5.5t-185 -2.5q-66 -2 -66 61q0 29 2.5 95.5t1.5 102.5q-1 67 -6.5 360t-6.5 451q-2 69 -1.5 310.5t0.5 310.5q0 21 -6.5 59.5t-7.5 52.5q-6 86 10.5 118t95.5 82q-24 13 -41 32t-26 35
t-15.5 43t-8 39.5t-4.5 42.5q-14 128 -14 386q0 66 23.5 88t91.5 24q121 4 256 -2q56 -2 73 -26q27 -37 -25 -82l-14 -10.5l-18 -13.5q32 -17 180 -95q5 9 19.5 33t24.5 40q-52 21 -53 21q-47 9 -40 63q6 46 62 43q177 -12 266 -156q103 -165 117 -424q30 -632 36 -1083z
M607 2063q54 87 4 168q-2 -14 -16 -49.5t-13 -63t25 -55.5zM757 1427l21 12q-2 2 -3.5 4t-3 3.5l-3 3l-2.5 2.5h-1q-4 -2 -18 -14q2 -2 4 -5t3.5 -4.5t2.5 -1.5zM1109 776q3 545 -4 934q-5 172 -38 451q-6 55 -54 138q-16 27 -42 38.5t-55 -1.5q-7 -4 -12 -14t-7.5 -19
t-6 -25t-5.5 -23v-37v-736h1q0 -636 1 -763q0 -95 12 -283v-13t0.5 -15t1.5 -13.5t3.5 -13t6 -10t9.5 -8.5t14 -4q24 -2 51.5 6.5t40.5 23.5q48 58 60 125q23 141 23 262z" />
    <glyph glyph-name="e" unicode="e" 
d="M935 2338v-13t1 -9q16 -35 23 -77t6 -78t-1 -78q-6 -332 -8 -498q0 -7 10 -82q117 0 174 1q17 0 70.5 3t83.5 2q43 0 58 -13t14 -51q0 -8 -8 -64q0 -3 -2.5 -15t-2.5 -15t2 -14q12 -31 -30 -50q3 -3 10 -8.5t11.5 -10t5.5 -8.5q19 -58 7.5 -76.5t-79.5 -18.5
q-87 1 -261 1q-11 0 -33.5 -1.5t-30.5 -1.5q0 -5 -3 -27.5t-3 -33.5q-1 -87 -1 -261.5t-1 -261.5q0 -121 1 -181q1 -41 11.5 -49.5t60.5 -8.5q139 0 208 1q54 1 78 -35q5 -7 47 -57q30 3 45 37t27 41q81 -135 59 -271q-3 -22 -23 -37q-12 -10 -26.5 -9t-24.5 15q-6 8 -18 26
q-21 27 -37.5 28t-36.5 -25q-38 -53 -124 -53q-101 0 -303 -0.5t-303 -0.5q-11 0 -33.5 1.5t-30.5 1.5q-5 63 -5 67q3 582 3 583q0 82 -5 244.5t-6 243.5q0 142 14 245q4 12 2.5 41t-2.5 40t-5 39.5t-5 39.5l-9 75q-10 78 65 99l5 2.5t7.5 4.5t9.5 6q-4 10 -11 30t-14 36
t-15 29q-55 88 -43 215q22 209 -10 511q-2 26 20 49t53 24q97 5 236 5h87.5h101.5h84q10 12 25.5 30.5t22.5 26.5q13 -8 13.5 -16.5t-4.5 -17.5t-4 -14q35 -5 45 0t36 40q13 -22 25 -43q5 0 35.5 -1.5t39 -1.5t34.5 0.5t39 3t34.5 6.5t39 12t34.5 18q4 -20 -16.5 -34
t-21.5 -16q12 -66 11.5 -101t-6 -101t-4.5 -101q0 -43 -69 -38q-23 2 -63.5 5.5t-73.5 6t-63 3.5q-60 2 -83.5 3.5t-68.5 10t-79 23.5q-3 1 -7 1.5t-8 0t-10 0.5zM1450 174q-6 -2 -20.5 -6t-20.5 -6.5t-14.5 -8t-11.5 -13.5t-2 -20q9 -2 26.5 -5.5l27.5 -5.5q1 6 6.5 28.5
t8.5 36.5zM1273 119l11 11q-16 4 -24 5q-2 0 -7 -2t-7 -2q2 -2 6.5 -8.5t7.5 -9.5z" />
    <glyph glyph-name="f" unicode="f" 
d="M588 1023q-12 -17 -19 -60t-28 -65q-2 6 -10.5 25t-11.5 28q-8 24 -12 54t-4.5 49.5t0.5 57t1 51.5q1 66 5.5 189.5t5.5 179.5q1 67 1 403q0 94 -3 112q-7 50 -2 80q2 20 2 27.5t-3.5 29t-4.5 29.5q0 3 -2 8.5t-2.5 8.5t0.5 7q21 36 22.5 84.5t-5.5 85.5q-7 88 19 209
q9 38 30.5 54.5t67.5 21.5q3 0 9 0.5t9 0.5q62 -9 205.5 -3t205.5 1q1 0 5 -2.5t8 -4.5q-16 -22 -23 -34q10 -2 11 -2l93 36q26 10 40 10q146 2 219 -2q46 -1 64.5 -17.5t18.5 -56.5q-1 -88 -10 -210q-2 -28 -20 -41.5t-58 -15.5q-29 -1 -117.5 -4.5t-136.5 -6.5
q-45 -2 -173 -10q-2 -15 -7 -45t-8 -51t-3 -41q-1 -151 3 -451q1 -26 4.5 -74.5t4.5 -68.5q1 -45 15 -55.5t69 -8.5q136 6 200 8q50 2 85 -2q37 -3 48.5 -14t10.5 -41q0 -18 -2 -71.5t-2 -82.5q-2 -43 5 -76q8 -42 -4 -54.5t-63 -13.5q-37 -2 -219 -4q-9 0 -38.5 1t-46.5 0
q-37 -2 -46.5 -10t-8.5 -39q0 -21 5 -69t4 -74q0 -57 -3.5 -160.5t-4.5 -136.5v-147q-9 -4 -35 -15t-45 -19q43 -14 81 -28q3 -109 2 -134q-3 -112 -9 -220q-3 -41 -14 -86q-7 -26 -19.5 -35.5t-42.5 -10.5q-74 -3 -139 1q-11 1 -23 6.5t-16 12.5t-8 12.5t-11 9.5t-11.5 6
t-13.5 3.5t-13.5 2t-16 1.5t-14.5 1q-1 -2 -9 -13.5t-14 -16.5q-29 -20 -44 -20q-28 1 -30 39q-7 77 -6 102q0 45 2 135.5t3 135.5q1 34 -2 205v65q2 1 6.5 2t6.5 1q1 -2 7 -8t8 -9q23 -59 52 -142q7 -20 7 -24q-2 -139 -6 -277q0 -4 -1.5 -16t-0.5 -19q2 -30 34 -29
q9 1 188 15q1 0 2.5 0.5t2.5 1.5t3 2.5t4 2.5q-3 27 -34 27q-7 1 -19 -0.5t-17 -1.5q-25 1 -35 8.5t-9 28.5q0 9 8 54l-10 8q-41 3 -58 22.5t-20 56.5q-4 43 -41 387q-11 98 -25 243zM798 525q-56 14 -83 -9q-2 -4 -1.5 -6t3 -11t3.5 -14q46 23 78 40zM770 122q40 -22 54 0
q1 2 -0.5 5t-5.5 8t-5 7q-6 -3 -43 -20z" />
    <glyph glyph-name="g" unicode="g" horiz-adv-x="1101" 
d="M1134 2155q2 -2 5 -7.5t6 -8.5t6 -4q27 -5 35 2q18 16 6 51t-37 40q-40 10 -44.5 19.5t15.5 41.5q2 3 7.5 11.5t8 13t5 11.5t2 14t-3.5 14q-1 2 0.5 4.5t5 7t4.5 6.5q11 -3 19.5 -7.5t15 -12.5t10 -13.5t9 -16.5l7.5 -15q31 11 36.5 34.5t-18.5 46.5q-17 15 -37 30
t-51 36.5t-47 32.5q10 -40 13 -49q12 -38 -4 -62t-57 -30q-7 -1 -19 -1.5t-16 -0.5q-42 -2 -61 -14t-31 -49q-45 -145 -53 -209q-3 -23 -4 -45q-2 -59 -9.5 -209t-10.5 -232q-1 -28 3 -81t4 -73q2 -93 -1 -138q-4 -31 -1.5 -84t6 -83.5t9.5 -83.5t9 -83q4 -43 10 -120.5
t11.5 -141.5t11.5 -120q11 -90 41 -175q12 -34 44 -50t71 -11q43 6 58 21t16 55q1 14 3.5 68t3 74t1.5 65.5t0 73.5t-3 66t-6 72q-6 48 -2 181q0 8 13 57q13 56 70 53q-7 7 -14 11q-53 30 -72.5 25t-52.5 -56q-17 -24 -25 -27q-37 -14 -59 -8q-6 1 -11.5 15t-5.5 25
q-3 120 -3 239q0 28 9 36.5t38 9.5q35 1 207 -2q29 0 61.5 -1t72 -2.5t61.5 -2.5q41 -2 53 -13.5t13 -47.5v-42v-49v-42q1 -52 -45 -80q-27 -17 -28 -28.5t22 -32.5q11 -11 26 -21q34 -24 26 -67q-8 -40 -10 -46q-17 -61 -3 -174q8 -54 2 -148q-3 -41 9 -66q10 -20 10 -47
q0 -58 -2 -163.5t-2 -139.5q0 -31 -33 -57q-95 -84 -291 -115q-132 -21 -269 1q-86 15 -149 65q-152 124 -187 328q-10 65 -24.5 184.5t-18.5 153.5q-10 72 45 89q44 -34 80 -64q3 5 9 14t9 15t3 11q2 40 -9 49q-11 8 -18 28t-18.5 33.5t-38.5 11.5q-5 -4 -12.5 -13
t-12.5 -14.5t-16 -9.5t-22 3q-11 5 -15.5 13.5t-5 15.5t0.5 20.5t1 17.5q0 51 -1.5 173t-2 189.5t0 167.5t3.5 183q10 369 44 551q26 142 54 206q81 189 230 232q104 28 196.5 30t177.5 -38.5t145 -121.5q79 -107 95 -281q5 -48 8 -101t6 -121.5t5 -101.5q1 -38 -7 -49
t-47 -25q-28 -10 -64.5 -16.5t-52.5 -8t-70 -4.5t-57 -3q-34 -2 -39 37q-16 145 6 295zM622 536q12 18 18 24q16 19 21 18q15 -2 23.5 3.5t7.5 17.5q-2 28 -18 40q-7 5 -21.5 4.5t-19.5 -5.5q-18 -19 -29 -55q-12 -33 18 -47zM776 664q11 20 14 37t-6 32.5t-15 23.5
t-24.5 24.5t-23.5 21.5q1 -9 2.5 -18.5t3.5 -17t6.5 -18.5t6.5 -16t8.5 -17.5t8.5 -16.5t10 -18t9 -17zM703 1030q6 1 18 1v55q0 3 -3.5 6t-10 6.5t-8.5 5.5q-1 -2 -4.5 -6.5t-5.5 -7.5t-2 -6q2 -12 16 -54zM974 2436q35 -17 47 -10.5t19 45.5q-28 -15 -66 -35zM579 1060
q20 -35 50 -19q4 1 4.5 9.5t-2.5 12.5q-8 10 -17.5 11.5t-16 -2t-18.5 -12.5zM859 2484q39 -7 46 18q1 3 -5.5 9.5t-10.5 6.5q-17 2 -25.5 -6t-4.5 -28zM658 690q2 1 5.5 3.5t5.5 4.5q-4 5 -30 35q-3 -23 -0.5 -28.5t19.5 -14.5zM587 993q1 2 3.5 6t3.5 6q-2 1 -6.5 3t-8 3
t-5.5 0q-7 -2 -18 -15q-1 -1 2.5 -6t5.5 -5q5 1 23 8zM608 1125q-15 9 -16 9q-5 -3 -13 -13l11 -7q1 0 18 11z" />
    <glyph glyph-name="h" unicode="h" 
d="M1157 1158q-25 69 -101 49q-24 -6 -119 -11q-33 -2 -42 -11.5t-9 -44.5v-222q0 -6 -3 -21q-15 -1 -60.5 -5.5t-70.5 -6.5q-18 -2 -34 4q-66 25 -118 -29q8 -2 26.5 -6.5t28.5 -7.5q1 -4 1 -11q-3 -2 -14 -8.5t-15 -8.5t-14 -8t-15.5 -8.5t-14.5 -7t-16 -7t-16 -6t-17 -6
t-17 -4.5q-9 19 -11 39t-0.5 47.5t1.5 37.5q-1 74 37 157q12 30 0 59q-48 120 -42 335q1 20 -0.5 59.5t-1.5 59.5q1 48 3.5 136t4 160t1.5 136q0 203 -6 609q-1 42 16 61t57 19h241q37 -1 47.5 -12t11.5 -49q2 -107 6 -320t5 -319q0 -55 -0.5 -116.5t-1.5 -136.5t-1 -117
v-74h220q0 3 2 18.5t2 23.5q-1 18 -6.5 102t-6.5 130q-1 26 1.5 75t2.5 68q1 178 1 532q0 93 2 139q2 37 13.5 50t46.5 13q123 3 275 1q32 -1 44 -14.5t13 -47.5q1 -96 1 -288q0 -46 0.5 -139t0.5 -140q0 -38 -11 -51q-6 -6 -14 -11q-25 -14 -10 -51q11 -19 13 -22
q26 -38 26 -60.5t-27 -62.5q23 -43 23 -101.5t-9 -104.5q-1 -4 -3.5 -11t-3.5 -13t0 -10q10 -42 11.5 -90.5t-1 -105.5t-0.5 -91q4 -88 5 -184.5t0.5 -223t-0.5 -185.5q0 -207 -3 -412q-1 -47 -10 -269q-17 0 -53.5 -3t-65 -2t-56.5 9q19 30 48 77q-19 -8 -48 -20t-39 -16
l-108 -42q-31 -11 -44.5 -1t-13.5 43q0 39 1 82.5t2.5 97.5t2.5 83q4 196 5 294q0 81 -1 244.5t-1 245.5q0 33 6 41t40 19zM775 1052q-5 3 -15 7q-8 -21 -9 -26q0 -1 5 -3.5t6 -2.5q2 4 13 25zM507 736h57q35 62 108 52q21 -3 32 -21t9 -45q28 8 30 8q0 12 -1 17
q-2 5 -7 14.5t-8 17t-3 14.5q-1 31 23 46.5t55 5.5q30 -9 64 -30q16 -10 16 -28q1 -17 1 -107q-7 -1 -21.5 -4t-20 -3t-14.5 3q-12 9 -26 11t-21 1t-25.5 -8t-21.5 -8q14 -1 46 -4.5t49 -5.5q42 -4 49 -12.5t8 -53.5q0 -130 -1 -195v-315q-1 -51 -16 -66t-64 -15
q-150 0 -225 1q-41 1 -53 13t-13 53q-1 46 -1 137t-1 137q0 29 -3 98.5t-3 107.5q-2 34 13 52q20 25 6 67q-3 11 -9 33.5t-8 31.5zM658 429q2 3 7.5 7.5t7.5 7.5t2 6q0 4 -4.5 10t-8.5 6t-9.5 -4t-7.5 -9q0 -3 1.5 -6t5.5 -8.5t6 -9.5z" />
    <glyph glyph-name="i" unicode="i" horiz-adv-x="607" 
d="M899 11q-6 0 -30.5 -3t-37.5 -3q-72 -2 -218 -2q-21 0 -25 1q-20 4 -25.5 13.5t2.5 29.5l3 6t3.5 6.5t2.5 6.5t1 7t-0.5 6.5t-2.5 7.5t-6 8q-24 -14 -37 -21q-1 2 -4 4.5t-4.5 4t-1.5 3.5q-5 22 -5 40q-2 202 -4 608q0 6 0.5 13t1.5 15t1 13q5 3 15 6.5t16.5 7.5t9.5 9
q5 6 7 14.5t4 24t4 24.5q-7 -5 -17.5 -12l-18 -12t-15.5 -10q-8 26 -8 31q-2 207 1 373q1 15 22 67q1 2 5 12.5t5 14t1.5 11.5t-2.5 14.5t-10 12.5q-1 4 -0.5 6.5t3.5 11t4 12.5q-21 11 -23 27.5t4.5 39.5t5.5 35q-3 27 10.5 40.5t34.5 23.5t28 22l-1 1l-2 2
q-55 -4 -72.5 10.5t-20.5 68.5q-5 108 -2 245q1 41 6.5 135.5t6.5 144.5q1 58 -4 261q-1 27 -2.5 57.5t-3.5 68t-3 57.5q-1 36 9 47.5t45 12.5q1 0 136 -3q17 0 53 0.5t53 0.5h40q42 -4 55 -19.5t13 -58.5q0 -50 1.5 -178.5t0.5 -198.5q0 -57 -3 -173t-4 -174
q-2 -644 -1 -966q0 -86 4 -249t4 -237q1 -131 -3 -393q0 -7 -5 -32zM683 23q5 2 16.5 6t15.5 5.5t13.5 5t14 6t11.5 6.5t11.5 7.5t9.5 8.5t9 11q13 19 15.5 30.5t-9.5 33.5q-8 10 -8 37q-1 8 0.5 23.5t1.5 21.5q2 27 -22 28q-18 0 -25 -25q-1 -2 -34 -111q-5 5 -13 19.5
t-17.5 20t-27.5 0.5q-1 -10 -4.5 -35t-5.5 -38q6 -4 16.5 -7t17 -5t13.5 -8t6 -15t-5 -26zM614 248q-32 7 -73 16q12 -21 50 -89l24 -4q2 5 5 15.5t5.5 16.5t6.5 8q22 12 23.5 34t-4.5 38q-8 41 -59 52q19 -75 22 -87zM665 1667q-30 14 -57 11.5t-56 -24.5q6 -2 14 -5
t12.5 -4.5t8.5 -0.5q7 2 78 23z" />
    <glyph glyph-name="j" unicode="j" 
d="M854 393q8 0 24 1t27 0t19 -5q42 -24 72 -27t48 13.5t28 39t18 57.5q19 84 24 169t3 222t-2 170q7 575 -6 1495q0 42 4 67.5t18 47t44.5 28.5t79.5 0q32 -5 63.5 -1.5t61 0.5t53 -12t38.5 -40t17 -83q11 -154 6.5 -732.5t-2.5 -731.5q0 -7 0.5 -25t0.5 -27t-2.5 -24.5
t-7 -25t-14 -21t-23.5 -20.5q-2 -1 -9.5 -4t-9 -5t-4.5 -9.5t4 -16.5q184 -367 -99 -762q-64 -89 -186 -118.5t-248.5 5.5t-203.5 122q-58 65 -96 138.5t-57 159t-26 153t-11 166.5q-1 31 15 45.5t51 24.5q58 17 94.5 26.5t72 14.5t55.5 3.5t38.5 -13t26.5 -27.5t15 -47
t9 -65t3 -88q0 -14 6 -36t10.5 -39.5t5 -37t-12 -37t-38.5 -31.5q-15 -4 -14.5 -16t17.5 -41z" />
    <glyph glyph-name="k" unicode="k" 
d="M671 1723q2 10 5 29.5t4 27.5q7 189 8 230q0 28 -1 112t1 112q0 17 3.5 36t9 42.5t7.5 36.5q1 3 4.5 16t3.5 16.5t-2 13.5q-12 21 -14 40t8.5 41t16 31t24.5 35q2 3 16 25q-5 10 -17.5 20t-23 17t-17 20t-2.5 31q124 3 135 2q19 -1 29 -15.5t9 -35.5q0 -2 -2.5 -33
t-3.5 -47q-18 -401 -19 -478q-1 -60 3 -174t4 -130q0 -15 -1.5 -63t-0.5 -74q0 -2 0.5 -10t0.5 -10.5t1 -10t2 -10.5t2.5 -9t3.5 -9.5t5 -8t6.5 -7t8.5 -5.5t11 -4q52 -12 87 53q27 49 34 93q7 48 17.5 145t17.5 146q3 20 15 55.5t15 50.5q15 60 39 180q1 8 -8 30
q-17 40 25 62q25 12 37 32q20 31 -13 54q-32 22 -36.5 42t17.5 48q38 49 53 119q11 59 72 60h178q32 -1 42.5 -13.5t7.5 -42.5q-5 -51 -21 -161q-4 -29 -13.5 -81.5t-15.5 -95.5t-7 -81q-3 -93 -32.5 -269t-33.5 -262q0 -18 -3.5 -36.5t-10 -44t-8.5 -35.5
q-31 -133 -132 -185q-3 -2 -24 -25q18 -28 21 -30q75 -50 108 -122.5t43 -169.5q5 -52 37 -428q1 -6 1.5 -20.5t2.5 -22.5q42 -142 30 -258q-3 -18 9 -43q9 -17 14.5 -35t8.5 -40.5t4.5 -35t2.5 -41.5t2 -37q2 -34 -13.5 -49.5t-50.5 -17.5q-143 -6 -211 -7q-35 -1 -48 11.5
t-17 47.5q-38 343 -55 487q-23 208 -26 241q-11 152 -67 316q-17 50 -59 72q-49 27 -66 -24q-5 -14 -5 -36q0 -44 1 -131.5t1 -130.5q0 -253 -1 -379q0 -166 -1 -187q-5 -141 -14 -242q-2 -29 -15 -38.5t-47 -9.5q-33 -1 -99 -1h-99q-54 -2 -63 41q-15 60 -15 73q0 30 3 90
t4 90q1 16 1 35t-0.5 42t-0.5 35v31q11 42 13 87.5t-1.5 108.5t-3.5 88q-2 220 -2 330l1 286q0 286 -1 286q-1 24 -8.5 68.5t-8.5 54.5q-9 53 -8 74q1 37 5 152t5 177q2 66 4 199t3 200q2 58 6 87q4 30 17.5 41.5t41.5 10.5q30 -2 49.5 -18t20.5 -42q0 -19 -2.5 -55
t-2.5 -51q-2 -53 -5.5 -158.5t-5.5 -157.5q-1 -24 -4 -68.5t-4.5 -80.5t-0.5 -68q1 -44 23 -236q0 -3 2.5 -6t8 -9.5t10.5 -13.5z" />
    <glyph glyph-name="l" unicode="l" horiz-adv-x="1215" 
d="M556 1541q-20 33 -22 41q-3 10 -5 47q-2 60 -5.5 179.5t-4.5 179.5q0 14 2 86q9 241 -18 504q-1 9 -1.5 19.5t-1 23.5t-0.5 20q-1 31 11 42.5t44 9.5q49 -3 145 -9q78 -4 115 -3q58 1 76 -54q15 -43 55 -69q34 -22 28 -63q-2 -8 -2.5 -23.5t-1.5 -23.5q-6 -34 -42 -23
q-5 2 -14 6.5t-16.5 7.5t-14.5 4q-15 2 -27 -14q-2 -3 1.5 -12t8.5 -12q26 -12 54 -18q29 -7 35.5 -15.5t8.5 -36.5q2 -58 6.5 -174.5t6.5 -175.5q1 -32 3.5 -132t4.5 -155q1 -33 5.5 -99.5t5.5 -100.5q2 -54 3 -152.5t2 -130.5q0 -15 2 -51t1 -56q0 -31 -3 -93.5t-4 -94.5
q0 -18 2 -54.5t2 -55.5v-236q0 -32 -0.5 -96t-0.5 -96q0 -40 14 -52t55 -10q55 3 164 5q126 2 189 2q33 -1 46.5 -10t20.5 -39q5 -22 8.5 -46t7 -59t4.5 -47q3 -21 5 -64q6 -62 -57 -62q-40 0 -119.5 1t-119.5 1t-121 -1t-122 -1q-120 0 -362 2q-36 0 -49.5 11.5t-15.5 45.5
q-6 78 -6 158q-1 59 0 168t1 144q0 316 -2 406q-1 27 -13 162q-7 62 27 100q25 28 16 60q-10 33 21 56q8 5 16 15q31 33 -2 63q-8 6 -23 17.5t-22 17.5q-58 49 -11 107zM607 1109q14 -1 27 11t14 26q1 13 -11 27t-25 15q-14 2 -30.5 -10.5t-17.5 -25.5q-1 -12 14 -26.5
t29 -16.5zM653 1014q23 17 24 26q1 6 -3 13q-1 3 -10 4t-13 -1q-21 -15 2 -42zM862 2576q-3 2 -9 7.5t-9.5 7.5t-7.5 2q-2 0 -5 -2t-7 -6l-6 -6q1 -1 8 -8.5t12 -9.5q2 -1 24 15zM895 2318q-17 15 -18 14q-14 -8 -18 -18q0 -1 2 -4t6 -7l6 -6q13 13 22 21zM591 1001
q-10 -10 -10 -11t8 -14l8 8q0 1 -6 17zM671 1954q4 6 7 9q-7 2 -19 8q0 -1 -1.5 -3t-2.5 -4q2 -2 8 -5.5t8 -4.5zM761 2502q2 -1 4 -4q4 -4 5 -3q7 0 9 7q0 2 -3 5t-4 3q-3 0 -11 -8zM841 2489q6 3 8 5q-1 3 -5 9l-6 -3q0 -2 1.5 -6t1.5 -5zM916 1870q-3 0 -6.5 1.5
t-5.5 1.5l-5 -5q5 -7 8 -7q2 0 9 9z" />
    <glyph glyph-name="m" unicode="m" 
d="M1237 1571q-17 -106 -20 -130q-8 -82 -21.5 -179.5t-24 -164t-30 -183t-27.5 -168.5q-8 -46 -21 -60t-50 -15q-10 -1 -58.5 0t-57.5 1q-36 0 -42 43q-10 62 -29.5 179t-28.5 170q-23 153 -38 276q-1 9 0.5 20t4.5 25t4 22q5 21 4 24q-13 39 26 67q34 25 27 80q-8 8 -17 9
t-14.5 -2t-14.5 -9.5t-14 -8.5q-13 35 -21 62q-3 -1 -9 -1q-6 -93 -6 -94q-1 -114 -3 -322.5t-3.5 -379.5t-2.5 -323v-130.5v-154v-130.5q0 -24 -3 -48q-7 -39 -37 -39q-116 -2 -174 -1q-21 0 -27.5 8t-7.5 34q-1 49 -1 146q0 385 1 577v10v10.5t0.5 9.5t1 10l1.5 9t3 9.5
t5 7.5t6.5 7.5t8.5 6.5q8 5 10 23q4 63 55 89q3 2 6 5.5t6.5 9.5t6.5 10q-31 26 -55 3q-8 -7 -21.5 -23t-17.5 -20q-15 31 -14 44t19 26q6 4 21.5 13t24.5 15q-10 18 -30 58q43 -13 54 -14q51 -9 54 36q2 33 -10 49t-43 17q2 -16 4 -46q-27 -15 -37 15q-3 10 -9 30.5
t-9 31.5q11 4 33 11t33 11v9q-17 4 -22 5q-5 0 -22.5 -1t-26.5 0q-12 0 -20 7t-7 20q0 36 11 49q24 30 56 50q29 17 15 62q-15 2 -47 6q-31 4 -32 30q-7 115 8 200q22 -48 71 -58q23 -4 44 12t28 44q7 31 -17 44l-62 27q-2 32 -2 51q-1 15 -6 25t-15 9q-9 -1 -22 -27
q-1 -2 -12 -44q-29 37 -13 87q3 11 8.5 22t14.5 26.5t13 23.5q-28 9 -42 14q0 7 -1 28.5t0 32.5q12 261 17 383v194v43q2 39 11 50t39 12q34 1 91.5 1h91.5q41 2 48 -44q4 -23 12 -64t13.5 -76t8.5 -66q9 -92 24 -200t27.5 -183t34 -202.5t31.5 -187.5q8 -52 19 -151
t13 -116q2 -14 8 -50q2 0 5.5 -0.5t4.5 -0.5q10 35 11 42q30 275 85 574q8 42 19.5 122t17.5 116q11 59 89 446q8 41 40 41q163 0 196 -1q21 -1 28.5 -10.5t9.5 -36.5v-70q0 -597 -1 -895q-1 -92 -5 -263t-5 -212q-3 -117 -4 -140q-3 -51 -16 -93q-8 -35 4 -56
q19 -34 17 -93l-6 -372v-11t-1 -11q-15 -49 -17 -101.5t3.5 -127t6.5 -102.5q1 -44 -7.5 -56t-42.5 -13q-15 0 -60 -1t-70 0q-40 1 -53.5 18t-10.5 63q12 107 9.5 493.5t-0.5 493.5v118q0 46 27 62q15 9 19.5 31.5t-3.5 38.5q-7 16 -13 35t-9 33t-6.5 37.5t-4.5 34t-3.5 38
t-3.5 35.5q-1 7 -1 21q-6 2 -9 2zM635 1564q1 -4 1 -11q24 -5 31 -4t20 5t19 5q24 3 30 10t7 34q2 73 0 145q0 3 -11 36q-14 -40 -14 -41q-9 -53 -10 -91q-3 -32 -13 -49.5t-35 -21.5q-4 -1 -8 -3.5t-9 -7t-8 -6.5zM1302 1531q3 -38 34 -51q4 -2 11 1t7 6q2 23 -5 27t-47 17
zM590 1487q-7 12 -9 15t-7.5 9t-10.5 5.5t-12 -5.5q-3 -2 -5 -8.5t0 -9.5q14 -29 44 -6zM725 1862q0 2 -0.5 6t-0.5 6l-24 -3q1 -4 1 -11q8 0 24 2zM576 1304q-9 9 -10 9t-10 -9q8 -10 9 -10t11 10z" />
    <glyph glyph-name="n" unicode="n" horiz-adv-x="1158" 
d="M714 2687q33 -33 77 2q41 -19 44 -20q31 -6 40 -35q14 -39 27 -88q56 -205 78 -292q6 -25 49 -222q6 -26 48 -216t63 -290q8 -34 16 -72.5t17.5 -85.5t14.5 -73q16 -77 34 -142v107q1 106 0 106q-4 170 -14 524q-8 252 -7 291q1 57 9.5 166t9.5 125q2 28 3 46
q-7 -2 -19.5 -5.5t-16.5 -4.5q-10 72 0 130q4 34 56 36q108 0 162 1q21 0 31 2q23 4 33.5 -1.5t17.5 -27.5q7 -20 7 -45q8 -220 9 -329q1 -110 4 -330t4 -330q2 -290 6 -435q2 -63 10.5 -189.5t10.5 -190.5v-53t-2 -53.5t-3 -53.5q-5 -115 -2 -141q13 -112 17 -308
q2 -96 2 -143q0 -22 -4.5 -27t-24.5 -6q-150 -2 -225 -1q-31 1 -44 12t-20 43q-21 91 -62.5 273t-62.5 273q-12 53 -38 155t-38 151q-9 40 -26 116t-19 86q-3 9 -8.5 27.5t-7.5 28.5l-54 243q-3 10 -9 32t-9 35q-13 -20 -8 -64q18 -293 18 -295q3 -80 5.5 -227t4.5 -204
q1 -83 5.5 -249t5.5 -249q1 -26 -2 -153q-2 -23 -9.5 -31.5t-29.5 -8.5q-146 -2 -221 -1q-29 0 -39 11.5t-10 42.5q0 23 3 109t2 132q-3 97 -20 582q-1 27 -4 82t-4 83q0 14 1 21q5 27 8.5 54t4.5 61t1.5 51.5t0 61t-0.5 54.5q0 203 -4 305q-5 155 -17 350q-7 109 -23 350
q-2 18 -14 91q-2 15 -2 17q7 21 3.5 77t-1.5 77q1 14 3 21.5t9 15t20 8.5q4 1 11 7.5t10 8.5q26 14 43 3q23 -15 31 -14t35 19zM867 1375q-17 15 -18 15q-3 1 -7.5 -4t-4.5 -8q1 -4 5 -10.5t5 -7.5q12 8 20 15zM905 1753q-21 14 -32 -4q-2 -7 2 -11q12 -10 29 9q1 1 1 6z
M805 1734q-9 -18 -9 -19q-1 -1 3.5 -5t5.5 -3q9 5 12 14q0 1 -12 13z" />
    <glyph glyph-name="o" unicode="o" horiz-adv-x="1150" 
d="M550 1421q6 252 10 373q0 8 2.5 24.5t3.5 25.5q13 141 14 160q6 208 65 401q74 245 334 283q144 21 279 -35q149 -63 200 -233q24 -81 36 -126.5t22.5 -116.5t7.5 -132q-1 -18 3.5 -52t4.5 -48q6 -242 9 -362q2 -61 -30 -99q-12 -13 -28 -41q-12 -23 -4.5 -45t30.5 -33
q34 -15 37.5 -24t-7.5 -47q-13 -43 -14 -48q-12 -68 -9 -88q17 -144 9 -231q-6 -64 -2 -191q3 -102 -35 -330q-15 -90 -53 -178q-76 -174 -266 -215q-188 -39 -339 39q-103 53 -160 177q-60 129 -77 322q-24 269 -40 573q-3 44 -3 93t1 111t1 93h-2zM932 411q21 6 33 -1
t23 -24q27 -44 86 -35q42 5 60 59q4 15 5 20q4 27 14 76.5t16.5 90t8.5 76.5q6 123 2 372q-2 133 -14 801q0 34 -4 106q-2 30 -5 85t-6 100.5t-7 85.5q-2 20 -24 76q-11 31 -49 36q-42 5 -62.5 -7.5t-34.5 -53.5q-10 -33 -12 -53q-3 -34 -9.5 -105t-10.5 -126t-6 -105
q0 -1 -6 -499q-1 -2 -13 -16q-15 41 -43 115q2 -50 17 -182q34 -297 42 -396q5 -50 7 -142t4 -124q1 -21 0 -33t-7.5 -26.5t-20.5 -24.5v-4t-1 -5q4 -6 14 -18t15.5 -21t6.5 -18q1 -10 -1.5 -21.5t-8.5 -30t-9 -28.5zM1370 1138h-40q14 -79 14 -81q31 11 34 21t-8 60z
M1273 974q16 -11 17 -11q10 -1 34 0.5t41 -2t32 -15.5q2 -1 28 12q-36 23 -74.5 25.5t-77.5 -9.5zM1496 1257q7 15 6 28t-16 23q-7 -5 -22 -16t-24 -18q26 -9 56 -17zM810 438q44 -13 52.5 -8t6.5 41q-9 -5 -28 -16t-31 -17zM1326 1165q5 5 14 15t13 14q-2 2 -6.5 6t-8 6
t-6.5 2q-9 -1 -12 -7t-1.5 -13.5t7.5 -22.5zM1344 1438q-16 -12 -18 -28t3 -29q1 0 4 -0.5t5 -0.5q4 38 6 58zM1232 1216q12 16 12 17q-2 4 -7.5 10.5t-7.5 8.5q-10 -12 -9 -14q1 -5 12 -22zM1280 891q-16 20 -17 20q-3 0 -18 -10q8 -14 10 -14zM1397 1341q4 -2 10 -6
q13 8 16 14t-8 27q-15 -30 -18 -35zM1421 1192l-22 8l-9 -9q11 -11 12 -11q2 0 4.5 1.5t6.5 5t8 5.5zM1425 714q-4 -10 -9.5 -23.5t-7.5 -18.5q22 3 24.5 13t-7.5 29zM1307 1062q-11 18 -16.5 19.5t-25.5 -6.5q8 -2 21 -6t21 -7zM1455 1097q-2 1 -6.5 1t-6.5 1
q0 -4 -1 -12.5t-2 -13.5l12 -1q2 9 4 25zM1271 1119v9q-14 2 -22 2l-1 -2q0 -1 -0.5 -3.5t-0.5 -3.5q8 0 24 -2zM1313 1770l9 12q-4 0 -10 2t-10 3q-4 0 -12 -4q10 -15 12 -17h2q2 1 4.5 2.5t4.5 1.5zM832 304q9 19 9 20q-1 6 -13 8q-2 0 -5 -4t-3 -6t2 -4.5t5 -6.5t5 -7z
M1340 896q-16 9 -17 9q-3 -1 -7.5 -5t-6.5 -5q7 -10 9 -10t22 11zM915 626q-6 8 -8 10q-8 -8 -8 -9t6 -10q1 1 4.5 4t5.5 5zM1314 1624q-3 6 -5 7q-2 0 -8 -4q0 -1 3 -4.5t4 -5.5q1 1 3 3.5t3 3.5zM1357 1011q1 2 2.5 4t2.5 4q-1 0 -5.5 2t-7.5 2q-5 0 -7 -5q-3 -5 3 -8
q2 -1 6.5 0t5.5 1z" />
    <glyph glyph-name="p" unicode="p" 
d="M566 745q-12 11 -21 23t-14 27.5t-8 26t-3 30.5t0.5 28.5t2.5 32.5t2 31q7 139 2 342q-3 143 -13 480t-14 519q-2 98 13 332q4 48 20.5 65t62.5 18q21 1 100.5 4t112.5 3t95.5 -1.5t112.5 -8.5t99 -20q190 -48 265 -229q16 -37 14 -45q-11 -58 34 -88q5 -3 6.5 -12t2 -26
t1.5 -25q-107 31 -111 32q-6 -12 -9 -19q7 -5 20 -16t23.5 -18.5t21.5 -9.5q45 -11 63 -39t29 -80q55 -262 -18 -595q-38 -172 -159.5 -273.5t-304.5 -118.5q-14 -2 -43.5 -4.5t-45.5 -4.5q-2 -14 -7 -43t-7.5 -51.5t-2.5 -43.5q1 -133 14 -809q0 -12 2 -38
q1 -75 -19.5 -96.5t-95.5 -22.5q-128 -2 -165 -1q-51 2 -69.5 20t-19.5 67q-2 103 0 409q0 114 3 142q2 15 6 31t11.5 39t10.5 36zM891 2384q-8 -133 -8 -136q-1 -152 1 -456q2 -245 5 -294q2 -55 32.5 -70.5t75.5 16.5q36 23 56 73q20 49 25 111q2 27 9 173t16 224
q13 125 -73 288q-45 84 -139 71z" />
    <glyph glyph-name="q" unicode="q" 
d="M583 592q-30 115 -34 138q-25 131 -29 188q-11 161 -18 406q-13 477 48 899q22 161 97 294q49 85 138.5 131.5t183 49t181.5 -35t135 -109.5q96 -149 82 -303q-8 -72 5 -103q19 -43 29.5 -96t12.5 -91t3.5 -102t3.5 -94q2 -84 1.5 -121t-5.5 -121t-6 -121
q-2 -101 -1 -121q20 -360 -42 -690q-16 -82 -60 -179q-28 -62 -14 -87.5t81 -30.5q96 -8 111.5 -23.5t11.5 -96.5q-1 -16 -1 -25q-4 -90 -45.5 -123t-143.5 -23q-149 15 -313 120q-44 28 -94 39q-85 17 -148 68.5t-131 137.5q-77 95 -39 225zM838 1732q0 -5 5.5 -55t6.5 -78
q4 -158 10 -472.5t9 -471.5q1 -46 22 -118q17 -55 73 -50q47 3 59 55q4 20 11 66t12 70q18 86 34 115q22 41 9 80q-31 99 -31 265q3 539 -2 971q0 23 -4 50t-8 46.5t-11 51t-10 47.5q-5 22 -19.5 36t-35.5 9q-47 -11 -60 -39q-19 -39 -23 -100q-4 -53 -9 -160t-9 -160
q-2 -22 -6.5 -47t-11.5 -58t-11 -53zM579 1490v-126h104q-3 8 -11.5 29.5t-13.5 31t-15.5 24.5t-26 24.5t-37.5 16.5z" />
    <glyph glyph-name="r" unicode="r" 
d="M1149 2630q2 0 10.5 2.5t12 2.5h10t11.5 -3t10 -8q6 -6 30 -4q40 3 68.5 -16.5t58.5 -57.5q7 -9 0 -36q-5 -27 15 -30q21 -3 34.5 -15.5t19 -24t12.5 -33.5q59 -168 59 -394q0 -244 -66 -468q-32 -109 -131 -208q-10 -10 -24.5 -19t-33.5 -18.5t-29 -15.5q-5 -2 -26 -15
q10 -2 25.5 -5.5t22.5 -4.5q90 -17 124 -99q23 -58 31 -118q14 -117 34 -353q1 -11 36 -476q8 -92 10 -138q3 -66 -61 -69q-170 -6 -255 -6q-31 0 -44.5 12t-15.5 44q-18 305 -20 419q-1 36 -8.5 101t-9.5 85q-3 35 -8 115t-9 123q-8 78 -24 156q-12 56 -59 77q-18 8 -27 9
q-45 9 -46 -36q-1 -28 -1.5 -84.5t-1.5 -84.5q-5 -257 -9 -308q-16 -202 -12 -404q4 -100 4 -150q0 -35 -15 -50.5t-51 -16.5q-84 -2 -251 0q-26 1 -37 12t-11 37q-2 207 3 289q1 12 4 32.5t5.5 34.5t1 32t-7.5 34q2 21 5 72.5t7 88.5t13 72q2 7 0 30q-1 10 -3.5 27.5t-4 32
t-1.5 27.5q0 8 12 404q1 33 5 135t5 158q0 17 -7 107q-1 10 -4 34t-4 37t-1.5 33t2 37t7.5 34q6 19 -1 42q-11 38 6 67q8 13 9 29t-0.5 24t-6.5 29q-10 42 -10 79q1 25 6.5 136t6.5 171q2 19 0.5 115.5t-1.5 115.5q0 42 15 57.5t57 16.5q189 7 323 7q53 0 122 -12
q42 -7 52.5 -14t32.5 -40zM1110 2256q-29 5 -37 10.5t-21 31.5q-31 61 -100 76q-30 6 -41 -2t-12 -37q-4 -159 -5 -235q-1 -90 -2 -271t-2 -272q0 -13 -1.5 -38.5t-1.5 -38.5q0 -48 48 -39q17 4 40 15q59 31 82 105q6 19 11 37.5t9 40.5t6.5 37t5 41t3.5 37t3.5 41.5
t3.5 38.5q6 57 19 86q43 94 59 147q19 65 74 88q7 3 18.5 10.5t12.5 8.5q-18 30 -27.5 34t-34.5 -11q-33 -18 -39 -20q-21 -7 -32 2.5t-7 30.5q1 5 14 36t-6 45q-14 12 -12 47q8 82 13 122q4 34 -13 50q-40 -10 -38 -48q0 -10 2 -30.5t2 -30.5q4 -94 6 -145zM1239 2512
l-35 -10t-4 -12q2 -7 11 -9q13 -1 20 6.5t8 24.5z" />
    <glyph glyph-name="s" unicode="s" 
d="M899 1283q-10 4 -18 9.5t-14 9.5t-12.5 12.5t-9.5 11.5t-8.5 14.5t-6.5 13t-6 14.5l-6 14q-1 3 -3 8.5t-3 8.5t-4.5 6.5t-9.5 5.5q-4 0 -6 4q-3 11 -23.5 46.5t-19.5 59.5q0 19 -5 20q-21 6 -23.5 22t3.5 29q-3 3 -12.5 6.5t-13 8t0.5 13.5q1 1 1 2.5t-1 1.5
q-21 15 -38 56t-33 56q-6 6 -9.5 13.5t-7.5 20.5t-6 17q-122 307 -6 675q42 131 144 198q66 44 118 25h12q3 4 9 12.5t10.5 13.5t9.5 6q39 8 78 0q4 -1 14.5 -3.5t16 -3t13.5 -0.5t14.5 3.5t12.5 10.5t27 5q6 -1 27 -2t30 -3t23 -9t22 -19q1 -2 20 -7q-10 -34 29 -39
q37 24 51.5 23t48.5 -31q93 -82 117 -184q62 -247 52 -398q-3 -50 -19 -105q-16 -52 -81 -61q-28 -4 -91 -13.5t-97 -14.5q-18 -3 -33 -2q-26 2 -36.5 15t-1.5 35q4 10 27 50q-18 25 -27.5 54t-10.5 56t-1 58v58q-3 76 -37 150q-10 20 -26 33q-24 19 -55.5 17t-51.5 -25
q-26 -30 -33 -83q-16 -117 19 -282q45 -214 209 -456q101 -150 229 -426q41 -86 64 -251q28 -196 7 -320q-9 -55 -55 -66q-26 -5 -14 -28q2 -3 5.5 -8.5t4.5 -8.5q28 -48 17.5 -80t-63.5 -61q-16 -8 -23 -12.5t-15.5 -14.5t-11.5 -23q-1 -4 -7 -7.5t-18 -8.5t-16 -7
q1 -4 5 -15t6 -19q-41 -31 -68 -54q2 -4 4 -6q31 10 41 11q16 4 22 -4q8 -11 0 -23q-4 -9 -21 -22q-58 -48 -128 -67q-154 -41 -295 -8q-147 34 -216 160q-63 115 -83 246q-30 189 -21 380q2 34 13.5 46t49.5 16q38 5 231 25h8q35 2 44.5 -6t10.5 -39q0 -98 1 -148
q2 -68 8 -214q0 -4 11 -58q13 -53 57 -61q64 -13 102 26q25 29 30 52q21 100 23 160q5 202 -54 345q-8 18 -16 35l-129 264q-1 2 -3.5 6.5t-3.5 6.5t-1.5 6t1 7t5 6.5t9.5 6.5zM1214 1096q39 -13 37 -59q0 -6 5 -62q0 -3 1.5 -6l3 -6l2.5 -5q6 0 9 1v46q-7 31 -3 69t31 63
q-46 16 -61.5 8.5t-24.5 -49.5zM1217 302q55 -13 65 5q11 19 -27 41q-7 -9 -20.5 -25.5t-17.5 -20.5zM1232 436q-33 -18 -33 -42q6 1 21.5 3t24.5 3q-1 3 -6 15.5t-7 20.5zM1172 324q-29 13 -36 12.5t-19 -14.5q24 -16 33 -15.5t22 17.5zM833 224q-5 -6 -16 -17.5t-15 -17.5
q1 -1 2.5 -3.5t2.5 -3.5q5 1 20 2.5t26 3.5q-11 17 -20 36zM1266 871l30 40q-29 -3 -55 -4q6 -10 25 -36zM1374 980q-30 20 -38 19.5t-18 -21.5q4 -1 13 -3.5t14.5 -3.5t13.5 1t15 8zM1013 204h60q-5 17 -9.5 21t-14.5 0t-36 -21zM1262 442q2 -3 4 -9l24 9l2 12l-15 -6z
M1234 865q0 1 -1 4.5t-2 5.5q-20 -6 -30 -8l3 -9q20 4 30 7z" />
    <glyph glyph-name="t" unicode="t" 
d="M1198 51q-13 -48 -69 -50q-23 0 -69 -0.5t-69 -0.5q-9 9 -18 0q-13 0 -40.5 1t-41.5 1q-30 1 -38 9t-10 39q-1 10 -3 32q6 14 -1 28q-2 18 -3 28q14 68 0 129v11q-2 242 -5 290q-1 14 1 57.5t-2 57.5q-5 30 -5 110q0 19 -0.5 40.5t-1.5 47.5t-1 40q6 36 0 107q0 8 -1 13
q4 31 10.5 37.5t33.5 4.5q28 -1 56 8q11 4 11 12q1 12 -13 14q-9 3 -18 3q-56 1 -68 63q0 3 -0.5 8t-0.5 8q9 36 -9 114q0 29 -1 44q1 6 1 18q1 40 15.5 60t49.5 31l34 10q-36 6 -75 34q-23 15 -10 36q8 15 14.5 19t22.5 -1q2 -1 9 -5t9.5 -5t10.5 -3t12 2q-2 17 -4 43
q-2 27 -16 31q-16 3 -36 26.5t-37 26.5q10 13 34 19.5t31 15.5q4 5 24 12.5t18 20.5t-10.5 16t-23 1.5t-19.5 -0.5q-33 7 -34 34q0 18 -5 112q70 -52 128 19q-8 7 -17 9t-16 1t-16 0h-18q-17 1 -25 3q-26 8 -26 39q0 8 4 11t12.5 3.5t10.5 1.5q12 4 9 12q-43 8 -53 19.5
t-15 60.5q-2 25 -7 36q2 18 3 26q2 126 -4 205q-1 23 -26 31q-19 3 -26.5 3.5t-25.5 -2t-26 -2.5h-11h-34q-11 8 -27 5q-29 1 -86 1q-24 23 -26 67q-1 12 -4 36.5t-3 36.5q-1 17 -7 66t-5 76q2 38 18 49q4 1 11 1h2l3 1q9 -1 28 -1q11 -6 20 -4h39q38 -6 92 -1h32
q13 -13 33 -8q13 4 39 2q98 -9 296 -3h82q103 -7 172 5q11 -1 33 -5h21h24q32 -7 38.5 -13.5t10.5 -37.5q3 -27 4.5 -59t1.5 -54.5t-0.5 -61t-0.5 -56.5q0 -32 -24 -33q-12 0 -38 -6.5t-40 -5.5q-53 2 -161 0q-35 0 -43 -9t-9 -48q-3 -180 -5 -216q-1 -16 1 -44t2 -38v-180
q2 -50 3 -173t4 -190q3 -47 3 -136.5t2 -131.5v-34q0 -7 -1 -27.5t-1 -30.5t1.5 -26t6.5 -29q0 -22 5 -68.5t4 -71.5q-2 -42 6 -63q1 -5 1 -16q-8 -10 -2 -20v-46q0 -4 -2 -12q0 -42 -2 -128q-12 -21 -2 -37q-8 -68 -7 -101q0 -48 -0.5 -145t-0.5 -145q0 -46 6 -64
q-3 -16 -3 -81q-10 -9 -5 -22zM943 2102q12 1 26 11t13 18q-2 29 -27 29q-13 1 -23.5 -12t-8.5 -28q2 -20 20 -18zM946 2254q0 22 -15 22q-24 -2 -25 -21q-1 -21 20 -24q11 -1 15.5 5.5t4.5 17.5z" />
    <glyph glyph-name="u" unicode="u" 
d="M1470 883q20 -3 25.5 -16.5t4.5 -36.5q-8 -194 -13 -291q-4 -86 -17 -134q-55 -219 -201 -334q-33 -28 -84 -43q-190 -56 -350 -1v20l-1 1l1 -1v-20q-18 6 -28 9q-140 59 -219 218q-58 116 -67 246q-8 102 -10 153q-7 138 -7 475q0 36 3 320t1 433q-2 104 -6 314
q0 4 1 39t-3 39v18v80q4 13 3 138.5t-1 138.5q0 45 10.5 57.5t51.5 12.5q221 0 249 1q16 0 31 -3q28 -4 25 -29q-3 -19 -2 -56.5t-2 -55.5q-1 -4 -4 -25.5t-3.5 -30t-1.5 -25t0.5 -30t4.5 -26.5q-5 -12 -2 -27q0 -3 -0.5 -8.5t-0.5 -8.5q-2 -21 0.5 -59.5t2.5 -49.5
q1 -86 1 -257t1 -256q0 -253 2 -292q2 -67 3.5 -202t4.5 -202q3 -73 4 -219t4 -219q6 -172 35 -273q11 -42 43 -50q6 0 16 8.5t14 4.5q10 -11 34 -4t33 4q5 -2 9.5 3.5t1.5 10.5q-2 3 -3 6.5t-1.5 5.5t0.5 5l1.5 4.5t3 4.5t3 3.5t3.5 4.5l4 3q16 16 23 45q17 74 17 107
q7 270 4 355q-1 20 1 60q0 27 24 30q8 1 24.5 6t26.5 7t24 0t26 -10q12 -6 18 5q11 24 -5 46q-19 23 -35 12q-7 -5 -15 -7.5t-17.5 -3.5t-15.5 -1.5t-17.5 0t-15.5 0.5q-25 1 -24 28q0 8 2 34.5t2 40.5q4 240 -2 389q-1 22 0.5 36t12.5 27.5t32 18.5q7 1 10 6t1.5 12
t-6.5 14q-3 4 -21 11q-18 8 -18 29q-1 16 19 47t34 36q13 6 18 -1q5 -9 -4 -20q-1 -2 -13.5 -17t-16.5 -24t0 -16t11 -3q14 2 17 3t16 -3.5t16 -5.5q1 2 2.5 6t2.5 6v9.5t0.5 9.5t1.5 8.5t3 7.5t5.5 5.5t8.5 2.5t12 -1q3 -1 5.5 2.5t3.5 7.5q2 21 27 21q19 0 9 20
q-6 12 -16 38q-15 6 -25.5 8.5t-24 -0.5t-24.5 -14q-5 -5 -16 -3q-19 4 -55 12q-19 4 -21 30q0 8 4 13t8 5.5l12 1.5q14 0 23 2.5t13.5 10.5t6 11.5t4.5 17.5q5 20 -14 30q-21 9 -29 10q-22 1 -24 30q-4 50 -10 160q-4 82 -14 246q1 8 4 31t3 31t-1 31q-2 8 4 20t6 18
q2 91 -2 120q-10 56 -3 67t59 19q18 3 69 1q15 0 18 -9q3 -11 -10 -21q-14 -11 -32 -21q-1 -10 10 -14q36 -13 31 -50q-1 -3 2 -11t3 -10q2 -16 9 -17t8.5 2.5t2.5 12.5q2 17 27 25q17 7 19 -10q1 -29 26 -39q3 -1 5.5 -9.5t7.5 -10.5q8 0 13 11q12 22 19 26.5t23 -0.5
q38 -10 40 -49v-52q-12 -5 -11 -11q0 -5 11 -5v-52q-14 -6 -11 -24q1 -19 -5 -40q-8 -25 -6 -32.5t23 -23.5v-15q-17 -8 -18.5 -12t7.5 -17q2 -2 6 -5t5 -4v-30q-5 -5 -16.5 -15.5t-17.5 -15.5q-15 -14 -17 -26.5t8 -30.5q2 -2 5 -7t5 -8t3.5 -7.5t1.5 -9.5q-3 -1 -9.5 -4
t-9.5 -4q-8 -2 -13 -4q5 2 13 4q-2 -12 4 -22q12 -24 17.5 -25t21.5 19q1 1 9 -1q2 -11 2.5 -22t-1 -24.5t-2 -20.5t-3.5 -24.5t-4 -21.5t-11 -14q-30 -35 7 -55q20 -10 11 -33q-3 -6 -9 -15q-14 -19 1 -32q12 -12 7 -23q-5 -10 -15 -15t-19 0q-20 11 -29 -7q-5 -11 -15 -14
q-14 -4 -9 -24t29 -29q4 -1 7 -1t5 0.5t4 3t3 3.5t3 5t3 5q10 16 31 12q12 -2 12 -21v-180q0 -18 -14 -23q-23 -7 -9 -31q9 -14 1 -19q-7 -6 -19 2q-40 35 -31 77q6 22 0.5 26.5t-25.5 -1.5q-14 -4 -20 -6q-12 -4 -11 -13q5 -28 -24 -53q-7 -7 -5.5 -15.5t11.5 -13.5
q10 -4 17 -4q31 -3 33 -33q2 -15 16 -24.5t27 -3.5q9 2 14 3t10.5 -3t8.5 -7t7 -9t7 -9q15 -15 -5 -36q-15 -14 -17.5 -25t5.5 -29q16 -29 -2 -51q-14 -15 -2 -38q0 -3 0.5 -11.5t1.5 -12.5t5.5 -8.5t13.5 -4.5q0 -3 0.5 -8t0.5 -7q-6 -12 -2 -17q5 -5 5.5 -15t1.5 -12v-1
q-14 -4 -17 -17t1 -24q4 -17 -4 -36q-8 -20 -12 -22t-24 7q-17 6 -24 -8q-11 -20 -1 -30q1 -1 5 -3t5.5 -4t1.5 -6q0 -32 28 -23q12 4 16 -9q4 -9 10 -9zM1437 1055q-10 0 -10 -8q0 -7 9 -9q9 0 10 8q0 7 -9 9zM1417 1097q-11 -1 -11 -16q0 -14 13 -12q11 0 11 15
q-2 13 -13 13zM1389 1885q2 9 -3 12q-5 0 -5 -3q-1 -7 8 -9zM1380 1979q-8 1 -15 -6.5t-7 -17.5q0 -16 16 -16q15 0 19 21q0 18 -13 19zM1384 1619q-9 1 -17.5 -13t-8.5 -29q0 -5 1 -7.5t3.5 -4t4.5 -2t5.5 -0.5h4.5q15 1 19.5 6t3.5 18q0 2 -0.5 9t-1.5 11t-4.5 7.5
t-9.5 4.5zM696 1874q-2 -1 -9.5 -1t-11.5 -2.5t-4 -11.5q-1 -9 8.5 -17.5t17.5 -6.5q4 1 6.5 2.5t4 4.5t2 5.5t1.5 7t1 6.5q1 8 -3 11t-13 2zM722 1571q3 16 -13 18q-9 1 -13.5 -3.5t-3.5 -13.5q2 -34 14 -55q9 13 16 54zM680 1645q8 -5 31.5 11.5t22.5 27.5q0 3 -4 9
q-1 2 -3.5 6t-4.5 7t-4 5q-19 23 1 46q9 11 9 19q-21 11 -35 12.5t-48 -3.5q-19 -2 -21.5 -6t1.5 -25l3 -48q0 -24 9 -30q28 -22 43 -31zM750 1880q-1 -9 3.5 -13.5t12.5 -3.5q16 2 15 15q-2 21 -19 21q-12 -1 -12 -19zM775 1351h8.5t8 0.5t6.5 4.5t3 11q0 15 -11.5 29.5
t-22.5 12.5q-9 -2 -9 -15.5t-1 -14.5q-3 -15 1.5 -22t16.5 -6zM868 181q15 25 -10 30q2 -5 3.5 -10t3.5 -11zM860 229q14 12 35 28q-22 16 -20 35q3 22 -17 28q-9 3 -15 -5q-5 -6 1 -14q21 -20 16 -72zM919 293l1 2q0 1 -1 1t-2 1l-1 -2q0 -5 3 -2zM1250 1240q11 -2 17 3
q-1 5 -10 14q-10 8 -16 4q-2 -1 -2 -10q2 -11 11 -11zM1276 1407q4 25 -13 31q-7 3 -15.5 -6t-10.5 -21q-3 -25 19 -30q9 -2 12.5 2t5 13t2.5 11zM1230 2420q12 0 12 15q0 9 -5.5 17t-11.5 7q-9 -2 -9 -17q2 -21 14 -22zM1297 2394q10 1 30.5 20t22.5 30q2 5 -0.5 9.5
t-6.5 3.5q-11 -1 -17 4t-7.5 11t-2.5 18q0 12 -3 13q-35 16 -48 15q-11 -2 -11 -15t-2 -15q-12 -16 8 -28q19 -12 25 -44q-8 -22 12 -22zM1308 1150q1 0 7 3t8 6t1 9q-2 24 -16 25q-8 1 -11 -5t-3 -15q0 -20 14 -23zM1320 1939q13 -2 16 8q0 10 -8 10q-14 2 -16 -9
q-2 -9 8 -9zM1411 2662q-10 -6 -23.5 1t-18.5 19q-3 11 -8 33q9 1 30.5 4t29 3.5t28.5 -1.5q42 -8 33 -50q-6 -26 -25 -12q-24 20 -46 3z" />
    <glyph glyph-name="v" unicode="v" 
d="M1420 2718q47 -4 66 -32.5t12 -85.5q-6 -60 -21.5 -169t-20.5 -149q-8 -69 -28 -199.5t-32.5 -236t-16.5 -201.5q-14 -31 -21.5 -96.5t-20.5 -96.5q-6 -6 -17 -8q3 -4 3 -9q0 -10 -3 -10q-3 -11 -7 -69.5t-28 -85.5q-7 -9 -22 -16q-2 -1 -10 -4q0 -2 1.5 -7.5t2.5 -8.5
q4 -21 0.5 -84t11.5 -83q-1 -7 -3.5 -21t-3.5 -23t0 -21.5t6 -22.5q-3 -27 -11 -74.5t-11.5 -74.5t-5.5 -75t7 -76q3 -24 1.5 -55t-13.5 -51q-33 -56 -45 -129q0 -24 2 -81t2.5 -88.5t-2 -78t-9.5 -85.5v-12q-3 -9 -3 -20q-1 -1 -3.5 -4t-4.5 -5q-16 -35 -42 -48l-18 -6
q-88 -22 -219 -13q-69 5 -91 22.5t-39 80.5q-13 48 -21 101.5t-14 123.5t-10 103q-17 130 -57 480t-67 541q-9 64 -53 457q-13 105 41 184q6 1 19.5 2.5t20.5 2.5q-7 26 -34 36q-46 20 -58.5 32.5t-2 28.5t53.5 49q26 19 3 43l-1 1q-5 12 -25 61q-16 22 -27.5 49t-17.5 46.5
t-9 54.5t-3.5 48.5t-0.5 55.5v51q0 17 10 31.5t26 17.5q50 9 81 12t75 -1t80 -21q47 -24 51 -89q2 -32 15 -135.5t11 -160.5q15 0 22 1v-2q14 -42 10.5 -128.5t10.5 -128.5q13 -115 25.5 -450t48.5 -517q8 10 13.5 22.5t9 22t6 25t3.5 23t2.5 25.5t2.5 24q2 20 8 79t8 91
q2 30 4.5 86.5t3.5 73.5q8 6 10 22q-4 -8 -10 -22q-7 39 11.5 104.5t19.5 88.5q1 18 15.5 28.5t24.5 12.5t35 6q1 -1 3.5 -3t3.5 -3q8 20 1.5 31.5t-25 22t-23.5 15.5q-21 19 -1 42q9 9 12 22q5 12 7 27q0 8 -4.5 27.5t-2.5 31.5q-17 105 -14 172.5t8.5 172.5t0.5 173
q-2 31 28.5 84.5t31.5 83.5h1q55 27 129 28.5t131 -7.5zM1157 698v2v-2z" />
    <glyph glyph-name="w" unicode="w" 
d="M989 1270l-12 -126q-19 -167 -28 -237q-1 -6 -17 -52q-8 -27 -7 -31q5 -17 0 -75q-2 -25 -4 -71t-3 -64q-2 -48 -7 -85q-30 -245 -34 -415q-2 -28 -4 -43q-7 -56 -39 -56q-55 -2 -166 0q-24 1 -28 41q-10 98 -11 116q-9 159 -25 452q-4 73 -11.5 219t-11.5 219
q-18 380 -28 569q-6 103 -18.5 307t-17.5 304q-6 113 -16 337q-2 38 0 74q1 61 41 65h67q71 0 86 -1q19 -2 26 -11.5t8 -37.5q8 -244 12 -365q2 -60 6.5 -180.5t6.5 -180.5q2 -78 2 -93q-1 -95 17 -364q2 -32 4.5 -90.5t3.5 -76.5q2 -22 6 -68h5q0 2 2 6.5t3 7.5q5 46 27 68
q17 18 8 47q-21 63 -12 163q7 76 20 227t20 227q9 104 29 312q2 20 4 30q7 39 27.5 57t45.5 6q22 -12 54 -1q41 11 53 12q14 1 21.5 -10t7.5 -33q1 -70 14 -200l15 -150q6 -83 13 -176.5t15.5 -206.5t13.5 -177q0 -3 9 -170q2 -13 11 -21q1 16 3 47.5t3 47.5q16 356 25 534
q4 79 9.5 167.5t12.5 195.5t11 167q5 94 12 185q9 99 73 103q46 2 112 -1q24 -2 33.5 -15t11.5 -51q3 -36 -1 -89q-5 -78 -17.5 -235t-17.5 -236q-2 -33 -4 -100t-4 -101q-2 -42 -17 -255q-1 -26 -3 -77.5t-4 -77.5q-2 -27 -8.5 -96.5t-8.5 -107.5q-2 -32 -4 -97t-4 -97
q-9 -121 -29 -363q-19 -247 -24 -433q-1 -70 -12 -174q-8 -90 -74 -102q-22 -5 -84 -7q-29 0 -45 22q-5 7 -19 13q-23 11 -26 48q-36 428 -40 501q-13 245 -29 397q-5 46 -12 132t-10 118q-1 8 -3.5 22.5t-2.5 17.5q-2 -1 -7 -1zM1191 1115q-1 14 1.5 54t-2.5 58
q-29 -42 -31 -46q-7 -12 4 -27q22 -30 28 -39zM986 2242l3 30q-9 -10 -9.5 -14t6.5 -16z" />
    <glyph glyph-name="x" unicode="x" 
d="M1075 637l-1 1v1q-18 13 -28 33.5t-12 34.5t-5 44q-10 98 -28 294q0 4 -2.5 14.5t-3.5 17.5q-6 -6 -9 -12.5t-3.5 -10.5t-0.5 -12v-10q-1 -13 -5 -87t-9 -113q-18 -149 -47 -314q-11 -61 -83 -446q-11 -62 -69 -63q-11 31 -25 36t-42 -12q-3 -1 -7 -6t-6 -6
q-17 -12 -24 -13q-98 -6 -151 -8l-14 6q21 104 79 391.5t100 487t85 388.5q21 4 29.5 3t36.5 -10q-5 28 -6 29q-13 21 -6 58q3 14 8 42.5t8 42.5q13 63 0 100q-11 34 5 101q1 5 4 18t5 21q-35 0 -38 -1q-32 -7 -48 23q-30 60 -37 86q-24 93 -63 264q-80 368 -119 553
q-10 41 -7 78q1 22 9.5 31t30.5 11q15 1 32 1.5t38 1t32 0.5q57 0 85 -2q46 -4 61.5 -19t26.5 -63q18 -92 28 -137q30 -131 63 -422q26 -220 40 -330q0 -9 10 -18q0 4 2 13.5t2 15.5q17 277 98 745q14 85 24 161q5 29 15.5 39.5t37.5 11.5q15 1 92 1q87 0 131 -1
q24 -1 31.5 -9t7.5 -34q0 -27 -7 -60l-78 -381t-77 -381q-36 -175 -76 -393q-6 -27 1 -59l180 -822q9 -39 31.5 -148.5t36.5 -168.5q7 -31 15.5 -66t19 -77l16.5 -66q4 -12 5 -18q3 -30 -25 -33q-15 -2 -45 0q-88 0 -173 3q-44 1 -61 15.5t-28 59.5q-56 240 -82 360
q-12 56 -21 139q0 7 1.5 15.5t4.5 20t4 19.5zM1110 558q38 -12 57 -19v52q-24 2 -31 -2t-26 -31zM1187 685q0 -8 -1.5 -24.5t-2.5 -26.5q4 1 11.5 2t11 2t7.5 3t5.5 6.5t1.5 11.5q-2 30 -33 26zM805 108v13h-22q-1 0 -1 -13h23z" />
    <glyph glyph-name="y" unicode="y" 
d="M1498 2631q-16 -9 -6 -28q0 -4 -0.5 -12.5t-0.5 -12.5q-21 -29 -19 -89q-3 -21 -7 -63q-28 -77 -27 -152q-2 -30 -3 -46q-7 -7 -5 -20q-2 -19 -4 -53q-18 -9 -12 -31q-14 -74 -40 -222q-15 -8 -5 -20q-4 -22 -12 -64q-22 -5 -27 -11q-8 -11 -13.5 -25.5t-7 -23t-4 -30
t-3.5 -25.5q-3 -27 25 -55l-3 -27q-14 -9 -18 -14t-1.5 -10t12.5 -15q0 -2 1.5 -5.5t2.5 -4.5q0 -7 -2 -19q-4 -4 -10 -8q1 -10 5 -30q0 -4 -2 -13t-2 -14q-8 -9 -3 -20l-12 -88t-14 -110.5t-6 -88.5q-3 -15 -4 -17q-17 -31 -31 -95t-18 -78q-11 -33 -14 -67.5t-2.5 -88.5
t0.5 -70q-2 -104 3 -296t6 -241q0 -30 6 -41q0 -9 1 -38.5t0 -45.5q0 -34 -12 -41t-41 8q-4 76 -13.5 214.5t-16 252t-9.5 214.5q-11 -2 -13 -18q-14 -98 -8 -195q6 -99 14 -299q0 -29 -8 -40q-9 -10 -18 -8q-9 3 -9 15q5 46 -22 70q-2 2 -5 27q-1 9 -2 26.5t-2 31.5t-2 26
v9.5t-0.5 10.5t-1.5 9t-4 6.5t-8 1.5q-11 -1 -11.5 -15.5t2.5 -24.5q10 -68 0 -135q-4 -22 -8 -25.5t-24 1.5q-35 10 -37 -32q-1 -22 6 -32t21 -9q24 2 31.5 -4t8.5 -30q4 -74 -4 -106q-63 -22 -116 -4q-23 8 -28.5 15.5t-6.5 33.5q-4 118 -5 177q3 41 1 214q-3 212 -9 424
q-3 102 -36 220q-10 33 -19.5 96.5t-14.5 84.5q-1 5 -1.5 14t-0.5 14q11 28 8 41.5t-23 32.5q-2 6 -5.5 15.5t-4.5 12.5q1 1 2.5 4l2.5 5q11 22 9 34t-20 33q-10 36 -10 56q14 18 -7 29q-8 19 -10.5 57t-6.5 52q0 1 -1.5 6t-2 7t-1.5 6.5t-0.5 7t1 6t2 5.5t4 4.5t7 4
t9.5 2.5q15 3 15 36q0 6 1 18.5t1 18.5q3 11 0.5 20t-15.5 10q-10 1 -8 22q0 4 3.5 11t4 11t-2.5 13q-3 38 29 39q35 2 13 33q-13 20 12 20q2 0 7.5 -1.5t8.5 -0.5q26 2 21 37q-5 30 -28 18q-25 -13 -69 -19q-20 -2 -23 -24q-1 -7 1.5 -10.5t9 -6.5t8.5 -4q1 -1 2.5 -3
t3 -4.5t3.5 -4.5q-36 -25 -34 -58q1 -6 -2.5 -11t-9.5 -5q-10 -1 -16 13q-2 4 -5.5 18t-9.5 20q0 11 -6 20q-16 104 -39 151q-3 6 -3 14q-5 47 -24.5 131t-24.5 119q-10 61 -31 130q-11 36 -35 173q-4 21 4 32.5t28 19.5q20 7 71 5q10 0 41 -3t52 -2.5t41 5.5q16 5 42 1
q56 -7 71.5 -23.5t23.5 -74.5q7 -45 40 -213q2 -11 7 -31.5t7.5 -33t5 -30.5t2.5 -33q0 -27 5.5 -84.5t3.5 -87.5q-1 -15 10 -36v-17q-4 -16 0 -39v-26q-3 -23 6 -39q-1 -14 7 -38t8 -36q-7 -10 -1 -20q1 -9 1 -27q-6 -11 2 -19q1 -3 1 -9t1 -9q-3 -10 5 -20l6 -54
q-16 -13 3 -21l4 -8q-1 -1 -2 -5t-1 -5q-13 -6 -10 -15q3 -10 19 -12q4 -7 6 -38q-20 -9 0 -20q0 -6 0.5 -18t0.5 -19q-3 -2 -10.5 -5.5t-11.5 -6t-6.5 -8.5t-0.5 -15q2 -11 9 -15.5t15 -4t17 0.5q2 0 4 0.5t4 0.5q11 3 16 15q7 5 11 11.5t5.5 13.5t2 14.5t0.5 15v15.5
q2 10 0 20t-12 14q-1 1 -3 1t-3 1q3 61 5 70q18 8 19.5 12.5t-11.5 18.5q2 16 -4 29q4 21 5 42.5t1 54v42.5q10 15 5 39q1 5 1 17q1 16 1 48l2 -1q15 7 6 19q1 19 1 59t1.5 70.5t4.5 58.5q14 16 8 47q7 109 13 135q9 42 17 128q5 73 32 196q2 0 8 1t8 2q23 -3 34.5 -3
t34.5 3t34 3h25q54 -11 152 -5h17q9 -6 14 -15t10 -24t7 -20q0 -5 -1 -14t-1 -13zM1230 1586q-6 3 -10 -6q-2 -8 6 -9q8 0 8 8q0 5 -4 7zM1133 1478q0 8 -4 2q-2 0 1 -3l1 1h2zM837 2191q-10 -1 -8 -17q2 -12 10 -12q6 -1 8 3.5t2 11.5q-1 7 -3.5 11t-8.5 3zM683 2024
q20 0 23 20q3 21 -19 23q-23 0 -24 -19q0 -22 20 -24zM816 2092q6 -6 16 -4.5t14 11.5q8 18 -17 30q-14 10 -19 8q-19 -3 -106 -1q3 -17 17 -19h19t21.5 -1t17.5 -3t20.5 -7.5t16.5 -13.5zM1103 1288q6 2 6 9q-2 8 -8 9q-6 0 -8 -8q0 -5 2.5 -8t7.5 -2z" />
    <glyph glyph-name="z" unicode="z" 
d="M1498 93q2 -48 0 -59q-26 -19 -75 -21q-40 -1 -137.5 -6t-137.5 -5.5t-137 2.5q-29 0 -98 -2.5t-107 -0.5q-24 1 -215 1q-49 -1 -64 11.5t-15 55.5q0 30 -6 91.5t-6 91.5q0 5 0.5 14.5t1 15t3.5 13t9 12.5q2 1 5 4t5 4q-1 5 -2.5 16t-2 17t-0.5 15t2.5 17t6.5 16
q4 11 15 30t16.5 35.5t2.5 33.5q-4 22 24 36q-4 2 -5 3q-8 25 7.5 67t14.5 60q0 4 2 14q9 29 21 57q10 20 19 28q4 2 7 3q14 6 22 31q33 133 54 189q4 2 5.5 9t5.5 10q0 4 0.5 11t0.5 10l9 9q0 21 -3 31q-6 35 15 93q59 164 97 337q3 34 19.5 95.5t19.5 74.5q8 38 49 48
q48 11 93 49q31 27 -10 32q-23 2 -29 9.5t3 27.5q10 20 -3 43q-4 4 -14 12.5t-13.5 12.5t-8 15t2.5 20q5 4 5.5 15t4.5 15h2q3 31 21 85.5t21 64.5q12 18 17.5 39.5t8.5 49t7 41.5q0 14 6 36.5t8 36t-4 36.5q-3 6 -15 11.5t-16 9.5h-1q-6 6 -4 13q-2 -7 -6 -13q-22 0 -33 1
q-42 -2 -121 5t-117 6q-12 0 -51 1.5t-60 0.5q-37 -2 -48 7t-12 44q0 3 -1.5 8t-1.5 6q8 9 2.5 30.5t-2.5 30.5h-1l-2 1q-4 3 -1.5 29t2.5 29q2 37 -10 51q0 24 -1 29q-9 60 55 75q17 -5 37 -5.5t44 0.5t38 0q135 -7 226 -6q93 2 188 -6q40 4 86 4.5t102.5 -0.5t87.5 -1
q46 2 61 -40q-1 -7 0 -45.5t-9 -45.5q0 -3 -0.5 -9.5t-1.5 -9.5q-4 -2 -2 -7q2 -2 3 -2v-1q5 -10 3.5 -35t6.5 -35q1 -17 -5 -36q-9 -20 -27 -41q5 -4 6 -10t0 -10l-3 -12t-3 -11h-1q-4 -4 -4.5 -15t-5.5 -15q-6 -6 -6 -20t-5 -20q-7 -41 -29 -119.5t-29 -117.5
q-7 -40 -46 -163q-22 -75 -26 -103v-1q-2 -8 -2 -12q-3 -26 -19 -46q-2 -38 -2 -57q0 -13 -8 -20q-7 -11 -12.5 -25.5t-8 -25t-5.5 -28t-5 -25.5q-3 -15 -13 -45q-1 -9 -8 -23q-5 -10 -13 -38.5t-17 -41.5q-1 -3 -3 -7q-6 -22 -29 -37q3 -5 2 -8q-1 -37 -24 -100t-27 -78
q-20 -36 -37 -124q-1 -1 -3 -1.5l-4 -1t-3 -0.5l2 -1q20 2 34 -21q4 -26 -0.5 -55.5t-11 -49t-19.5 -53.5t-18 -49q-10 -27 -41 -27q-12 0 -20.5 6t-11 10.5t-9.5 17.5q-2 4 -4.5 17.5t-7.5 20t-16 4.5q-7 -1 -11.5 -5t-6.5 -11t-3 -12t-1.5 -14.5t-0.5 -12.5q-2 -48 18 -72
q22 -26 4 -56q-11 -17 -15 -26.5t3.5 -19t33.5 -10.5q12 -1 20 -15q1 -5 0 -23t6 -22q-1 -7 -1.5 -26t-3.5 -32t-12 -25q-1 -1 -8 -4.5t-7.5 -4.5t-3.5 -6.5t3 -10.5q3 -54 25 -113q18 24 69 20q52 -4 117 -5t117 -0.5t117 -0.5q42 -1 61.5 -15t28.5 -50q0 -7 -1 -10
q-1 -28 0.5 -59.5t4.5 -70t4 -59.5zM831 2680q11 -5 20 4q-8 -2 -20 -4zM1307 2581q-4 0 -12 2h-1q28 -17 21 -52q4 2 14 6q46 16 50.5 27t-18.5 45q0 -1 -1 -1q1 -6 7 -16t7 -16q-3 -14 -19 -19q-1 -1 -3.5 -1t-3.5 -1q-8 0 -14 3q-5 3 -18 16q-1 1 -4 3.5t-5 3.5z
M1300 2640h3q7 3 10 9q-3 -5 -7 -6l-4 -1zM1321 2663q0 2 2 6q-4 -2 -2 -6zM1328 2674l3 3zM1286 2153q22 -10 30.5 -6.5t21.5 15t22 13.5q-15 4 -16 15q1 6 14 22q2 2 4.5 5.5t3.5 5.5q-4 -1 -12.5 -6t-12.5 -6q-11 -44 -55 -58zM1133 2092q4 -9 3.5 -26t1.5 -26q3 8 10 12
q29 16 56 1q-4 11 -21 15.5t-21 11.5v2q-2 -2 -3 -4q-15 -4 -23 9q0 1 -2 5h-1zM1320 2260q1 12 -1.5 15.5t-18.5 -0.5q12 -4 20 -15zM1209 2291q-10 3 -28.5 -2t-29.5 -6.5t-27 13.5q-14 -18 -13 -26q-2 -15 17 -32q5 -10 5 -12q20 -2 28 12q26 43 57 -7q16 -28 19 -55
q4 5 9 15t8 14q1 2 2.5 5.5t2.5 5.5q1 4 1 26q-4 1 -6 4.5t-4 9t-3 7.5q0 3 -1.5 16t1.5 16h-4q-7 1 -14 0q-6 -2 -20 -4zM1128 2634q0 1 1 1h-1v-1zM856 560l-2 -2q4 -2 6 -2q-3 1 -4 4zM887 605q3 -3 7 -5q-1 1 -3 2.5t-3 2.5l-9 15q4 -7 0 -17q6 2 8 2zM864 639
q2 -3 6.5 -7.5t5.5 -6.5q-5 8 -12 14zM896 1079q8 2 18 10.5t15 10.5q-26 36 -87 27q-4 -6 3 -13q10 -8 14 -12q13 -16 15 -22q1 -2 1 -6h1q3 1 10 2.5t10 2.5zM920 2384q8 -2 25 -2q-16 2 -25 2zM1028 2388q2 15 -4 18q4 -12 4 -18z" />
  </font>
</defs>
</svg>
